<svg width="114" height="42" viewBox="0 0 114 42" fill="none" xmlns="http://www.w3.org/2000/svg">
<path d="M28.6324 27.0937C26.2571 27.0487 24.1764 25.9795 22.911 24.37C22.762 24.1805 22.9385 23.9308 23.1983 23.9357C26.0598 23.99 28.4136 22.6152 28.4555 20.8648C28.4972 19.1144 26.2115 17.6516 23.35 17.5973C22.9962 17.5906 22.7578 17.2534 22.9643 16.9976C24.2954 15.3489 26.4851 14.2923 28.9377 14.3388L32.174 14.4002C36.1304 14.4752 39.27 17.3911 39.1859 20.9131C39.1016 24.4351 35.826 27.2299 31.8697 27.1551L28.6324 27.0937Z" fill="#7614AC"/>
<path d="M14.1758 26.8619C10.2192 26.7868 7.0796 23.8702 7.1639 20.3481C7.24829 16.826 10.5246 14.0319 14.4811 14.107L16.8417 14.1517C18.9746 14.1923 20.8685 15.0587 22.1488 16.4004C22.5695 16.8414 22.063 17.4499 21.4133 17.4376C18.6875 17.3859 16.4446 18.7171 16.4041 20.4113C16.3635 22.1055 18.5406 23.5205 21.2665 23.5722C21.987 23.5859 22.5398 24.2656 22.0631 24.7467C20.7163 26.1061 18.7315 26.9482 16.5365 26.9067L14.1758 26.8619Z" fill="#7614AC"/>
<mask id="path-3-outside-1_4637_3189" maskUnits="userSpaceOnUse" x="45.9902" y="7.4834" width="68" height="23" fill="black">
<rect fill="white" x="45.9902" y="7.4834" width="68" height="23"/>
<path d="M47.5724 29.4834V28.495C48.1863 28.3686 48.6466 28.2332 48.9535 28.0888C49.2695 27.9353 49.4274 27.7954 49.4274 27.6691V13.8042C49.0844 13.8493 48.7549 13.8945 48.439 13.9396C48.1321 13.9847 47.8432 14.0299 47.5724 14.075L47.3964 12.8293C47.8839 12.712 48.4255 12.6037 49.0212 12.5044C49.617 12.4051 50.2353 12.3193 50.8762 12.2471C51.5261 12.1749 52.176 12.1207 52.8259 12.0846C53.4849 12.0395 54.1122 12.0169 54.708 12.0169C55.7551 12.0169 56.7074 12.1207 57.5649 12.3283C58.4314 12.536 59.1716 12.8429 59.7854 13.2491C60.3992 13.6553 60.8731 14.1562 61.2071 14.752C61.5411 15.3477 61.7081 16.0338 61.7081 16.8101C61.7081 17.4329 61.6224 18.0061 61.4508 18.5296C61.2793 19.0532 61.0446 19.5225 60.7468 19.9378C60.4579 20.353 60.1194 20.7186 59.7313 21.0345C59.3522 21.3504 58.946 21.6122 58.5127 21.8198C58.0884 22.0274 57.6552 22.1854 57.2129 22.2937C56.7796 22.393 56.3644 22.4427 55.9672 22.4427C55.552 22.4427 55.1458 22.4111 54.7486 22.3479C54.3514 22.2757 53.9994 22.1719 53.6925 22.0365L53.2727 20.6148C53.6428 20.7863 53.9678 20.8991 54.2476 20.9533C54.5365 20.9984 54.8389 21.021 55.1548 21.021C55.5429 21.021 55.9266 20.9533 56.3057 20.8179C56.6848 20.6734 57.0188 20.4523 57.3076 20.1544C57.6055 19.8565 57.8447 19.4774 58.0253 19.0171C58.2058 18.5567 58.296 18.0061 58.296 17.3652C58.296 16.7243 58.1877 16.1601 57.9711 15.6727C57.7635 15.1853 57.4656 14.7791 57.0775 14.4541C56.6983 14.1201 56.2425 13.8719 55.7099 13.7094C55.1774 13.5379 54.5861 13.4522 53.9362 13.4522C53.7557 13.4522 53.5706 13.4567 53.3811 13.4657C53.2005 13.4657 53.011 13.4702 52.8124 13.4792V27.6691C52.8124 27.7232 52.8395 27.7819 52.8936 27.8451C52.9568 27.9083 53.0696 27.976 53.2321 28.0482C53.4036 28.1204 53.6383 28.1926 53.9362 28.2648C54.2341 28.337 54.6177 28.4137 55.0871 28.495V29.4834H47.5724ZM68.9872 29.4834V28.495C69.3753 28.4318 69.6912 28.3686 69.9349 28.3054C70.1877 28.2332 70.3863 28.1655 70.5307 28.1023C70.6751 28.0301 70.7744 27.9579 70.8286 27.8857C70.8827 27.8135 70.9098 27.7413 70.9098 27.6691V12.3419C70.9098 11.9357 70.8873 11.6198 70.8421 11.3941C70.797 11.1684 70.7112 11.0014 70.5849 10.8931C70.4585 10.7758 70.278 10.699 70.0433 10.6629C69.8086 10.6178 69.5017 10.5727 69.1226 10.5275V9.57975C69.5739 9.51656 69.9936 9.45338 70.3818 9.39019C70.7699 9.31798 71.14 9.24125 71.492 9.16001C71.8441 9.07877 72.1916 8.98399 72.5346 8.87567C72.8776 8.76736 73.2251 8.64098 73.5772 8.49656L74.1594 9.05169V27.6691C74.1594 27.7413 74.191 27.8135 74.2542 27.8857C74.3174 27.9489 74.4212 28.0166 74.5656 28.0888C74.719 28.161 74.9176 28.2332 75.1613 28.3054C75.4141 28.3686 75.7255 28.4318 76.0956 28.495V29.4834H68.9872ZM97.6457 27.9669C97.3117 28.1836 96.9416 28.4047 96.5354 28.6304C96.1383 28.856 95.7501 29.0637 95.371 29.2532C95.0009 29.4428 94.6669 29.5962 94.369 29.7136C94.0802 29.8309 93.8816 29.8896 93.7733 29.8896C93.6108 29.8896 93.4528 29.858 93.2994 29.7948C93.155 29.7407 93.0151 29.6323 92.8797 29.4699C92.7533 29.2984 92.6404 29.0682 92.5412 28.7793C92.4419 28.4814 92.3651 28.1023 92.311 27.642C91.7513 28.1294 91.2458 28.5221 90.7945 28.8199C90.3522 29.1088 89.946 29.3345 89.5759 29.4969C89.2149 29.6594 88.8809 29.7632 88.574 29.8084C88.2671 29.8625 87.9692 29.8896 87.6803 29.8896C87.2561 29.8896 86.8409 29.8309 86.4347 29.7136C86.0285 29.5962 85.6629 29.3841 85.3379 29.0772C85.013 28.7613 84.7512 28.3325 84.5526 27.7909C84.354 27.2493 84.2547 26.5543 84.2547 25.7058V20.1544C84.2547 19.7211 84.2457 19.3871 84.2277 19.1525C84.2186 18.9087 84.16 18.7282 84.0516 18.6109C83.9523 18.4845 83.7899 18.3987 83.5642 18.3536C83.3476 18.3085 83.0316 18.2633 82.6164 18.2182V17.2704C83.0677 17.2343 83.4785 17.1937 83.8485 17.1486C84.2277 17.1034 84.5887 17.0538 84.9317 16.9996C85.2747 16.9364 85.6132 16.8642 85.9472 16.783C86.2902 16.7017 86.6513 16.6024 87.0304 16.4851L87.5043 17.1079V24.8528C87.5043 25.4124 87.5359 25.8682 87.5991 26.2203C87.6713 26.5723 87.7751 26.8476 87.9105 27.0462C88.0459 27.2358 88.2084 27.3667 88.3979 27.4389C88.5965 27.5111 88.8222 27.5472 89.0749 27.5472C89.2645 27.5472 89.4676 27.5246 89.6842 27.4795C89.9099 27.4344 90.1536 27.3531 90.4154 27.2358C90.6862 27.1094 90.975 26.9424 91.2819 26.7348C91.5979 26.5272 91.9409 26.2609 92.311 25.9359V20.1544C92.311 19.7482 92.2929 19.4233 92.2568 19.1795C92.2297 18.9358 92.1575 18.7463 92.0402 18.6109C91.9228 18.4755 91.7423 18.3807 91.4986 18.3265C91.2639 18.2724 90.9389 18.2363 90.5237 18.2182V17.2704C91.4264 17.1892 92.2433 17.0809 92.9744 16.9455C93.7146 16.801 94.4097 16.6476 95.0596 16.4851L95.5606 17.1079V25.6381C95.5606 25.9179 95.5651 26.1526 95.5741 26.3421C95.5831 26.5227 95.5967 26.6761 95.6147 26.8025C95.6418 26.9198 95.6734 27.0146 95.7095 27.0868C95.7546 27.159 95.8088 27.2177 95.872 27.2629C95.9803 27.3351 96.1292 27.3531 96.3188 27.317C96.5174 27.2719 96.8468 27.15 97.3072 26.9514L97.6457 27.9669ZM113.292 27.3847C112.092 28.2513 111.076 28.8876 110.246 29.2938C109.415 29.691 108.761 29.8896 108.283 29.8896C107.894 29.8896 107.524 29.8129 107.172 29.6594C106.829 29.515 106.527 29.2893 106.265 28.9824C106.012 28.6755 105.809 28.2919 105.656 27.8315C105.502 27.3621 105.426 26.8115 105.426 26.1797V18.5838H103.787L103.395 18.0963L104.451 16.8913H105.426V14.0615L108.161 12.044L108.675 12.4908V16.8913H112.805L113.292 17.3787C113.211 17.5322 113.107 17.6947 112.981 17.8662C112.864 18.0286 112.742 18.1911 112.615 18.3536C112.489 18.5071 112.363 18.647 112.236 18.7733C112.119 18.8997 112.015 18.9945 111.925 19.0577C111.817 19.0035 111.677 18.9494 111.505 18.8952C111.343 18.841 111.158 18.7914 110.95 18.7463C110.742 18.6921 110.521 18.6515 110.287 18.6244C110.061 18.5973 109.826 18.5838 109.582 18.5838H108.675V24.9205C108.675 25.3808 108.702 25.7735 108.757 26.0984C108.811 26.4144 108.887 26.6716 108.987 26.8702C109.095 27.0598 109.217 27.1997 109.352 27.2899C109.497 27.3712 109.655 27.4118 109.826 27.4118C109.989 27.4118 110.156 27.3983 110.327 27.3712C110.508 27.3351 110.711 27.2809 110.936 27.2087C111.162 27.1365 111.415 27.0372 111.695 26.9108C111.984 26.7754 112.318 26.6039 112.697 26.3963L113.292 27.3847Z"/>
</mask>
<path d="M47.5724 29.4834V28.495C48.1863 28.3686 48.6466 28.2332 48.9535 28.0888C49.2695 27.9353 49.4274 27.7954 49.4274 27.6691V13.8042C49.0844 13.8493 48.7549 13.8945 48.439 13.9396C48.1321 13.9847 47.8432 14.0299 47.5724 14.075L47.3964 12.8293C47.8839 12.712 48.4255 12.6037 49.0212 12.5044C49.617 12.4051 50.2353 12.3193 50.8762 12.2471C51.5261 12.1749 52.176 12.1207 52.8259 12.0846C53.4849 12.0395 54.1122 12.0169 54.708 12.0169C55.7551 12.0169 56.7074 12.1207 57.5649 12.3283C58.4314 12.536 59.1716 12.8429 59.7854 13.2491C60.3992 13.6553 60.8731 14.1562 61.2071 14.752C61.5411 15.3477 61.7081 16.0338 61.7081 16.8101C61.7081 17.4329 61.6224 18.0061 61.4508 18.5296C61.2793 19.0532 61.0446 19.5225 60.7468 19.9378C60.4579 20.353 60.1194 20.7186 59.7313 21.0345C59.3522 21.3504 58.946 21.6122 58.5127 21.8198C58.0884 22.0274 57.6552 22.1854 57.2129 22.2937C56.7796 22.393 56.3644 22.4427 55.9672 22.4427C55.552 22.4427 55.1458 22.4111 54.7486 22.3479C54.3514 22.2757 53.9994 22.1719 53.6925 22.0365L53.2727 20.6148C53.6428 20.7863 53.9678 20.8991 54.2476 20.9533C54.5365 20.9984 54.8389 21.021 55.1548 21.021C55.5429 21.021 55.9266 20.9533 56.3057 20.8179C56.6848 20.6734 57.0188 20.4523 57.3076 20.1544C57.6055 19.8565 57.8447 19.4774 58.0253 19.0171C58.2058 18.5567 58.296 18.0061 58.296 17.3652C58.296 16.7243 58.1877 16.1601 57.9711 15.6727C57.7635 15.1853 57.4656 14.7791 57.0775 14.4541C56.6983 14.1201 56.2425 13.8719 55.7099 13.7094C55.1774 13.5379 54.5861 13.4522 53.9362 13.4522C53.7557 13.4522 53.5706 13.4567 53.3811 13.4657C53.2005 13.4657 53.011 13.4702 52.8124 13.4792V27.6691C52.8124 27.7232 52.8395 27.7819 52.8936 27.8451C52.9568 27.9083 53.0696 27.976 53.2321 28.0482C53.4036 28.1204 53.6383 28.1926 53.9362 28.2648C54.2341 28.337 54.6177 28.4137 55.0871 28.495V29.4834H47.5724ZM68.9872 29.4834V28.495C69.3753 28.4318 69.6912 28.3686 69.9349 28.3054C70.1877 28.2332 70.3863 28.1655 70.5307 28.1023C70.6751 28.0301 70.7744 27.9579 70.8286 27.8857C70.8827 27.8135 70.9098 27.7413 70.9098 27.6691V12.3419C70.9098 11.9357 70.8873 11.6198 70.8421 11.3941C70.797 11.1684 70.7112 11.0014 70.5849 10.8931C70.4585 10.7758 70.278 10.699 70.0433 10.6629C69.8086 10.6178 69.5017 10.5727 69.1226 10.5275V9.57975C69.5739 9.51656 69.9936 9.45338 70.3818 9.39019C70.7699 9.31798 71.14 9.24125 71.492 9.16001C71.8441 9.07877 72.1916 8.98399 72.5346 8.87567C72.8776 8.76736 73.2251 8.64098 73.5772 8.49656L74.1594 9.05169V27.6691C74.1594 27.7413 74.191 27.8135 74.2542 27.8857C74.3174 27.9489 74.4212 28.0166 74.5656 28.0888C74.719 28.161 74.9176 28.2332 75.1613 28.3054C75.4141 28.3686 75.7255 28.4318 76.0956 28.495V29.4834H68.9872ZM97.6457 27.9669C97.3117 28.1836 96.9416 28.4047 96.5354 28.6304C96.1383 28.856 95.7501 29.0637 95.371 29.2532C95.0009 29.4428 94.6669 29.5962 94.369 29.7136C94.0802 29.8309 93.8816 29.8896 93.7733 29.8896C93.6108 29.8896 93.4528 29.858 93.2994 29.7948C93.155 29.7407 93.0151 29.6323 92.8797 29.4699C92.7533 29.2984 92.6404 29.0682 92.5412 28.7793C92.4419 28.4814 92.3651 28.1023 92.311 27.642C91.7513 28.1294 91.2458 28.5221 90.7945 28.8199C90.3522 29.1088 89.946 29.3345 89.5759 29.4969C89.2149 29.6594 88.8809 29.7632 88.574 29.8084C88.2671 29.8625 87.9692 29.8896 87.6803 29.8896C87.2561 29.8896 86.8409 29.8309 86.4347 29.7136C86.0285 29.5962 85.6629 29.3841 85.3379 29.0772C85.013 28.7613 84.7512 28.3325 84.5526 27.7909C84.354 27.2493 84.2547 26.5543 84.2547 25.7058V20.1544C84.2547 19.7211 84.2457 19.3871 84.2277 19.1525C84.2186 18.9087 84.16 18.7282 84.0516 18.6109C83.9523 18.4845 83.7899 18.3987 83.5642 18.3536C83.3476 18.3085 83.0316 18.2633 82.6164 18.2182V17.2704C83.0677 17.2343 83.4785 17.1937 83.8485 17.1486C84.2277 17.1034 84.5887 17.0538 84.9317 16.9996C85.2747 16.9364 85.6132 16.8642 85.9472 16.783C86.2902 16.7017 86.6513 16.6024 87.0304 16.4851L87.5043 17.1079V24.8528C87.5043 25.4124 87.5359 25.8682 87.5991 26.2203C87.6713 26.5723 87.7751 26.8476 87.9105 27.0462C88.0459 27.2358 88.2084 27.3667 88.3979 27.4389C88.5965 27.5111 88.8222 27.5472 89.0749 27.5472C89.2645 27.5472 89.4676 27.5246 89.6842 27.4795C89.9099 27.4344 90.1536 27.3531 90.4154 27.2358C90.6862 27.1094 90.975 26.9424 91.2819 26.7348C91.5979 26.5272 91.9409 26.2609 92.311 25.9359V20.1544C92.311 19.7482 92.2929 19.4233 92.2568 19.1795C92.2297 18.9358 92.1575 18.7463 92.0402 18.6109C91.9228 18.4755 91.7423 18.3807 91.4986 18.3265C91.2639 18.2724 90.9389 18.2363 90.5237 18.2182V17.2704C91.4264 17.1892 92.2433 17.0809 92.9744 16.9455C93.7146 16.801 94.4097 16.6476 95.0596 16.4851L95.5606 17.1079V25.6381C95.5606 25.9179 95.5651 26.1526 95.5741 26.3421C95.5831 26.5227 95.5967 26.6761 95.6147 26.8025C95.6418 26.9198 95.6734 27.0146 95.7095 27.0868C95.7546 27.159 95.8088 27.2177 95.872 27.2629C95.9803 27.3351 96.1292 27.3531 96.3188 27.317C96.5174 27.2719 96.8468 27.15 97.3072 26.9514L97.6457 27.9669ZM113.292 27.3847C112.092 28.2513 111.076 28.8876 110.246 29.2938C109.415 29.691 108.761 29.8896 108.283 29.8896C107.894 29.8896 107.524 29.8129 107.172 29.6594C106.829 29.515 106.527 29.2893 106.265 28.9824C106.012 28.6755 105.809 28.2919 105.656 27.8315C105.502 27.3621 105.426 26.8115 105.426 26.1797V18.5838H103.787L103.395 18.0963L104.451 16.8913H105.426V14.0615L108.161 12.044L108.675 12.4908V16.8913H112.805L113.292 17.3787C113.211 17.5322 113.107 17.6947 112.981 17.8662C112.864 18.0286 112.742 18.1911 112.615 18.3536C112.489 18.5071 112.363 18.647 112.236 18.7733C112.119 18.8997 112.015 18.9945 111.925 19.0577C111.817 19.0035 111.677 18.9494 111.505 18.8952C111.343 18.841 111.158 18.7914 110.95 18.7463C110.742 18.6921 110.521 18.6515 110.287 18.6244C110.061 18.5973 109.826 18.5838 109.582 18.5838H108.675V24.9205C108.675 25.3808 108.702 25.7735 108.757 26.0984C108.811 26.4144 108.887 26.6716 108.987 26.8702C109.095 27.0598 109.217 27.1997 109.352 27.2899C109.497 27.3712 109.655 27.4118 109.826 27.4118C109.989 27.4118 110.156 27.3983 110.327 27.3712C110.508 27.3351 110.711 27.2809 110.936 27.2087C111.162 27.1365 111.415 27.0372 111.695 26.9108C111.984 26.7754 112.318 26.6039 112.697 26.3963L113.292 27.3847Z" fill="#7614AC"/>
<path d="M47.5724 29.4834H47.1873V29.8685H47.5724V29.4834ZM47.5724 28.495L47.4948 28.1178L47.1873 28.1811V28.495H47.5724ZM48.9535 28.0888L49.1175 28.4373L49.1218 28.4352L48.9535 28.0888ZM49.4274 13.8042H49.8126V13.3651L49.3772 13.4224L49.4274 13.8042ZM48.439 13.9396L48.3845 13.5583L48.383 13.5586L48.439 13.9396ZM47.5724 14.075L47.1911 14.1289L47.2463 14.5198L47.6358 14.4549L47.5724 14.075ZM47.3964 12.8293L47.3063 12.4549L46.9661 12.5368L47.0151 12.8832L47.3964 12.8293ZM50.8762 12.2471L50.8337 11.8643L50.8331 11.8644L50.8762 12.2471ZM52.8259 12.0846L52.8473 12.4692L52.8522 12.4689L52.8259 12.0846ZM57.5649 12.3283L57.4743 12.7027L57.4752 12.7029L57.5649 12.3283ZM60.7468 19.9378L60.4338 19.7132L60.4306 19.7178L60.7468 19.9378ZM59.7313 21.0345L59.4881 20.7358L59.4847 20.7386L59.7313 21.0345ZM58.5127 21.8198L58.3463 21.4725L58.3434 21.4739L58.5127 21.8198ZM57.2129 22.2937L57.2989 22.6692L57.3045 22.6678L57.2129 22.2937ZM54.7486 22.3479L54.6797 22.7269L54.6881 22.7282L54.7486 22.3479ZM53.6925 22.0365L53.3231 22.1455L53.3737 22.3168L53.537 22.3888L53.6925 22.0365ZM53.2727 20.6148L53.4347 20.2653L52.6623 19.9074L52.9034 20.7238L53.2727 20.6148ZM54.2476 20.9533L54.1744 21.3316L54.1882 21.3338L54.2476 20.9533ZM56.3057 20.8179L56.4352 21.1806L56.4428 21.1778L56.3057 20.8179ZM57.3076 20.1544L57.0353 19.882L57.0311 19.8863L57.3076 20.1544ZM57.9711 15.6727L57.6167 15.8236L57.6192 15.8291L57.9711 15.6727ZM57.0775 14.4541L56.8228 14.7432L56.8302 14.7494L57.0775 14.4541ZM55.7099 13.7094L55.5919 14.0761L55.5975 14.0778L55.7099 13.7094ZM53.3811 13.4657V13.8508H53.3902L53.3994 13.8504L53.3811 13.4657ZM52.8124 13.4792L52.7949 13.0945L52.4273 13.1112V13.4792H52.8124ZM52.8936 27.8451L52.6012 28.0957L52.6108 28.1069L52.6213 28.1174L52.8936 27.8451ZM53.2321 28.0482L53.0757 28.4002L53.0827 28.4031L53.2321 28.0482ZM55.0871 28.495H55.4722V28.1708L55.1528 28.1155L55.0871 28.495ZM55.0871 29.4834V29.8685H55.4722V29.4834H55.0871ZM47.5724 29.4834H47.9576V28.495H47.5724H47.1873V29.4834H47.5724ZM47.5724 28.495L47.6501 28.8722C48.2731 28.7439 48.769 28.6013 49.1175 28.4373L48.9535 28.0888L48.7895 27.7403C48.5243 27.8651 48.0994 27.9933 47.4948 28.1178L47.5724 28.495ZM48.9535 28.0888L49.1218 28.4352C49.2934 28.3519 49.4475 28.2606 49.5643 28.1571C49.6726 28.0612 49.8126 27.8978 49.8126 27.6691H49.4274H49.0423C49.0423 27.6175 49.0589 27.5827 49.0666 27.5699C49.0731 27.5589 49.0732 27.563 49.0536 27.5805C49.0125 27.6169 48.9296 27.6722 48.7853 27.7424L48.9535 28.0888ZM49.4274 27.6691H49.8126V13.8042H49.4274H49.0423V27.6691H49.4274ZM49.4274 13.8042L49.3772 13.4224C49.0329 13.4677 48.702 13.513 48.3845 13.5583L48.439 13.9396L48.4935 14.3209C48.8079 14.2759 49.1359 14.231 49.4777 14.186L49.4274 13.8042ZM48.439 13.9396L48.383 13.5586C48.0739 13.604 47.7826 13.6495 47.5091 13.6951L47.5724 14.075L47.6358 14.4549C47.9039 14.4102 48.1903 14.3655 48.495 14.3206L48.439 13.9396ZM47.5724 14.075L47.9538 14.0211L47.7778 12.7754L47.3964 12.8293L47.0151 12.8832L47.1911 14.1289L47.5724 14.075ZM47.3964 12.8293L47.4866 13.2038C47.9636 13.0889 48.496 12.9823 49.0845 12.8843L49.0212 12.5044L48.9579 12.1245C48.3549 12.225 47.8042 12.335 47.3063 12.4549L47.3964 12.8293ZM49.0212 12.5044L49.0845 12.8843C49.6732 12.7862 50.2847 12.7013 50.9193 12.6298L50.8762 12.2471L50.8331 11.8644C50.1859 11.9373 49.5608 12.024 48.9579 12.1245L49.0212 12.5044ZM50.8762 12.2471L50.9187 12.6299C51.5616 12.5585 52.2045 12.5049 52.8473 12.4692L52.8259 12.0846L52.8046 11.7001C52.1475 11.7366 51.4906 11.7913 50.8337 11.8643L50.8762 12.2471ZM52.8259 12.0846L52.8522 12.4689C53.5034 12.4243 54.1219 12.4021 54.708 12.4021V12.0169V11.6318C54.1026 11.6318 53.4664 11.6547 52.7996 11.7004L52.8259 12.0846ZM54.708 12.0169V12.4021C55.73 12.4021 56.6513 12.5034 57.4743 12.7027L57.5649 12.3283L57.6555 11.954C56.7634 11.738 55.7801 11.6318 54.708 11.6318V12.0169ZM57.5649 12.3283L57.4752 12.7029C58.3069 12.9022 59.0036 13.1935 59.5729 13.5702L59.7854 13.2491L59.998 12.9279C59.3397 12.4923 58.556 12.1698 57.6546 11.9538L57.5649 12.3283ZM59.7854 13.2491L59.5729 13.5702C60.1396 13.9453 60.5695 14.4021 60.8712 14.9403L61.2071 14.752L61.5431 14.5637C61.1768 13.9103 60.6588 13.3652 59.998 12.9279L59.7854 13.2491ZM61.2071 14.752L60.8712 14.9403C61.1687 15.4711 61.323 16.0906 61.323 16.8101H61.7081H62.0932C62.0932 15.977 61.9135 15.2244 61.5431 14.5637L61.2071 14.752ZM61.7081 16.8101H61.323C61.323 17.3974 61.2421 17.9296 61.0848 18.4097L61.4508 18.5296L61.8168 18.6495C62.0026 18.0826 62.0932 17.4684 62.0932 16.8101H61.7081ZM61.4508 18.5296L61.0848 18.4097C60.9246 18.8988 60.7071 19.3324 60.4338 19.7133L60.7468 19.9378L61.0597 20.1623C61.3822 19.7127 61.634 19.2075 61.8168 18.6495L61.4508 18.5296ZM60.7468 19.9378L60.4306 19.7178C60.1621 20.1038 59.8481 20.4428 59.4882 20.7358L59.7313 21.0345L59.9744 21.3332C60.3907 20.9943 60.7538 20.6021 61.0629 20.1577L60.7468 19.9378ZM59.7313 21.0345L59.4847 20.7386C59.1294 21.0347 58.75 21.279 58.3463 21.4725L58.5127 21.8198L58.6791 22.1671C59.1419 21.9454 59.5749 21.6661 59.9778 21.3304L59.7313 21.0345ZM58.5127 21.8198L58.3434 21.4739C57.943 21.6698 57.5357 21.8181 57.1212 21.9196L57.2129 22.2937L57.3045 22.6678C57.7746 22.5527 58.2338 22.3851 58.682 22.1658L58.5127 21.8198ZM57.2129 22.2937L57.1268 21.9183C56.7185 22.0119 56.3322 22.0575 55.9672 22.0575V22.4427V22.8278C56.3965 22.8278 56.8407 22.7741 57.2989 22.6691L57.2129 22.2937ZM55.9672 22.4427V22.0575C55.5716 22.0575 55.1856 22.0274 54.8091 21.9675L54.7486 22.3479L54.6881 22.7282C55.1059 22.7947 55.5324 22.8278 55.9672 22.8278V22.4427ZM54.7486 22.3479L54.8175 21.969C54.4443 21.9011 54.1222 21.8051 53.8479 21.6841L53.6925 22.0365L53.537 22.3888C53.8766 22.5386 54.2585 22.6502 54.6797 22.7268L54.7486 22.3479ZM53.6925 22.0365L54.0619 21.9274L53.6421 20.5057L53.2727 20.6148L52.9034 20.7238L53.3231 22.1455L53.6925 22.0365ZM53.2727 20.6148L53.1108 20.9642C53.4982 21.1437 53.854 21.2694 54.1744 21.3314L54.2476 20.9533L54.3208 20.5751C54.0816 20.5289 53.7875 20.4288 53.4347 20.2653L53.2727 20.6148ZM54.2476 20.9533L54.1882 21.3338C54.4982 21.3822 54.8205 21.4061 55.1548 21.4061V21.021V20.6358C54.8572 20.6358 54.5748 20.6146 54.3071 20.5727L54.2476 20.9533ZM55.1548 21.021V21.4061C55.5887 21.4061 56.0161 21.3302 56.4352 21.1806L56.3057 20.8179L56.1761 20.4552C55.837 20.5763 55.4972 20.6358 55.1548 20.6358V21.021ZM56.3057 20.8179L56.4428 21.1778C56.8757 21.0128 57.257 20.7599 57.5841 20.4225L57.3076 20.1544L57.0311 19.8863C56.7806 20.1447 56.4939 20.334 56.1686 20.458L56.3057 20.8179ZM57.3076 20.1544L57.58 20.4267C57.9213 20.0854 58.1872 19.6589 58.3838 19.1577L58.0253 19.0171L57.6667 18.8764C57.5022 19.2959 57.2897 19.6276 57.0353 19.8821L57.3076 20.1544ZM58.0253 19.0171L58.3838 19.1577C58.5863 18.6414 58.6812 18.0406 58.6812 17.3652H58.296H57.9109C57.9109 17.9715 57.8253 18.472 57.6667 18.8764L58.0253 19.0171ZM58.296 17.3652H58.6812C58.6812 16.6811 58.5655 16.0619 58.323 15.5163L57.9711 15.6727L57.6192 15.8291C57.81 16.2584 57.9109 16.7675 57.9109 17.3652H58.296ZM57.9711 15.6727L58.3254 15.5218C58.0951 14.9811 57.7616 14.5246 57.3247 14.1588L57.0775 14.4541L56.8302 14.7494C57.1696 15.0335 57.4318 15.3894 57.6168 15.8236L57.9711 15.6727ZM57.0775 14.4541L57.332 14.1651C56.9077 13.7913 56.402 13.5179 55.8223 13.341L55.7099 13.7094L55.5975 14.0778C56.083 14.2259 56.489 14.449 56.8229 14.7431L57.0775 14.4541ZM55.7099 13.7094L55.828 13.3428C55.2517 13.1572 54.6199 13.067 53.9362 13.067V13.4522V13.8373C54.5524 13.8373 55.103 13.9186 55.5919 14.076L55.7099 13.7094ZM53.9362 13.4522V13.067C53.7493 13.067 53.5581 13.0717 53.3627 13.081L53.3811 13.4657L53.3994 13.8504C53.5831 13.8416 53.7621 13.8373 53.9362 13.8373V13.4522ZM53.3811 13.4657V13.0806C53.1942 13.0806 52.9987 13.0852 52.7949 13.0945L52.8124 13.4792L52.8299 13.864C53.0232 13.8552 53.2069 13.8508 53.3811 13.8508V13.4657ZM52.8124 13.4792H52.4273V27.6691H52.8124H53.1975V13.4792H52.8124ZM52.8124 27.6691H52.4273C52.4273 27.8534 52.518 27.9986 52.6012 28.0957L52.8936 27.8451L53.186 27.5944C53.1758 27.5825 53.1775 27.5817 53.1824 27.5923C53.1878 27.6039 53.1975 27.6307 53.1975 27.6691H52.8124ZM52.8936 27.8451L52.6213 28.1174C52.7368 28.2329 52.9042 28.3239 53.0757 28.4001L53.2321 28.0482L53.3885 27.6962C53.317 27.6644 53.263 27.6365 53.2238 27.613C53.2044 27.6014 53.1902 27.5917 53.1801 27.5843C53.1699 27.5767 53.1659 27.5727 53.166 27.5727L52.8936 27.8451ZM53.2321 28.0482L53.0827 28.4031C53.2814 28.4868 53.5386 28.5647 53.8455 28.6391L53.9362 28.2648L54.0269 27.8905C53.7381 27.8205 53.5259 27.754 53.3816 27.6932L53.2321 28.0482ZM53.9362 28.2648L53.8455 28.6391C54.1548 28.7141 54.5477 28.7925 55.0214 28.8745L55.0871 28.495L55.1528 28.1155C54.6878 28.035 54.3133 27.9599 54.0269 27.8905L53.9362 28.2648ZM55.0871 28.495H54.702V29.4834H55.0871H55.4722V28.495H55.0871ZM55.0871 29.4834V29.0983H47.5724V29.4834V29.8685H55.0871V29.4834ZM68.9872 29.4834H68.602V29.8685H68.9872V29.4834ZM68.9872 28.495L68.9253 28.1149L68.602 28.1675V28.495H68.9872ZM69.9349 28.3054L70.0316 28.6784L70.0407 28.6757L69.9349 28.3054ZM70.5307 28.1023L70.6851 28.4552L70.6941 28.4512L70.7029 28.4468L70.5307 28.1023ZM70.5849 10.8931L70.3228 11.1753L70.3284 11.1806L70.3342 11.1855L70.5849 10.8931ZM70.0433 10.6629L69.9705 11.0411L69.9776 11.0425L69.9847 11.0436L70.0433 10.6629ZM69.1226 10.5275H68.7374V10.8695L69.077 10.91L69.1226 10.5275ZM69.1226 9.57975L69.0692 9.19833L68.7374 9.24478V9.57975H69.1226ZM70.3818 9.39019L70.4437 9.77042L70.4522 9.76883L70.3818 9.39019ZM72.5346 8.87567L72.4186 8.50842L72.5346 8.87567ZM73.5772 8.49656L73.8429 8.21782L73.6621 8.04542L73.431 8.14024L73.5772 8.49656ZM74.1594 9.05169H74.5445V8.88677L74.4252 8.77296L74.1594 9.05169ZM74.2542 27.8857L73.9643 28.1393L73.9728 28.149L73.9818 28.158L74.2542 27.8857ZM74.5656 28.0888L74.3933 28.4334L74.4016 28.4373L74.5656 28.0888ZM75.1613 28.3054L75.0519 28.6747L75.0599 28.6771L75.0679 28.6791L75.1613 28.3054ZM76.0956 28.495H76.4807V28.17L76.1604 28.1153L76.0956 28.495ZM76.0956 29.4834V29.8685H76.4807V29.4834H76.0956ZM68.9872 29.4834H69.3723V28.495H68.9872H68.602V29.4834H68.9872ZM68.9872 28.495L69.049 28.8751C69.4432 28.811 69.7719 28.7456 70.0316 28.6782L69.9349 28.3054L69.8383 27.9326C69.6105 27.9917 69.3074 28.0526 68.9253 28.1149L68.9872 28.495ZM69.9349 28.3054L70.0407 28.6757C70.3007 28.6015 70.5179 28.5283 70.6851 28.4552L70.5307 28.1023L70.3763 27.7495C70.2546 27.8027 70.0747 27.865 69.8291 27.9351L69.9349 28.3054ZM70.5307 28.1023L70.7029 28.4468C70.865 28.3658 71.0285 28.261 71.1367 28.1168L70.8286 27.8857L70.5205 27.6546C70.523 27.6512 70.5159 27.6615 70.487 27.6825C70.4588 27.703 70.4172 27.7285 70.3585 27.7579L70.5307 28.1023ZM70.8286 27.8857L71.1367 28.1168C71.2282 27.9948 71.295 27.8435 71.295 27.6691H70.9098H70.5247C70.5247 27.6629 70.5253 27.6572 70.5262 27.6522C70.5271 27.6473 70.5282 27.6439 70.5289 27.6421C70.5302 27.6387 70.5292 27.6429 70.5205 27.6546L70.8286 27.8857ZM70.9098 27.6691H71.295V12.3419H70.9098H70.5247V27.6691H70.9098ZM70.9098 12.3419H71.295C71.295 11.9264 71.2723 11.581 71.2198 11.3186L70.8421 11.3941L70.4645 11.4696C70.5022 11.6585 70.5247 11.945 70.5247 12.3419H70.9098ZM70.8421 11.3941L71.2198 11.3186C71.1641 11.0403 71.0483 10.7831 70.8355 10.6007L70.5849 10.8931L70.3342 11.1855C70.3742 11.2198 70.4299 11.2966 70.4645 11.4696L70.8421 11.3941ZM70.5849 10.8931L70.8469 10.6109C70.6465 10.4248 70.3848 10.3258 70.1018 10.2823L70.0433 10.6629L69.9847 11.0436C70.1711 11.0723 70.2705 11.1268 70.3228 11.1753L70.5849 10.8931ZM70.0433 10.6629L70.116 10.2847C69.8686 10.2372 69.5516 10.1908 69.1681 10.1451L69.1226 10.5275L69.077 10.91C69.4517 10.9546 69.7485 10.9985 69.9705 11.0411L70.0433 10.6629ZM69.1226 10.5275H69.5077V9.57975H69.1226H68.7374V10.5275H69.1226ZM69.1226 9.57975L69.1759 9.96116C69.6297 9.89764 70.0523 9.83403 70.4436 9.77032L70.3818 9.39019L70.3199 9.01006C69.935 9.07272 69.5181 9.13548 69.0692 9.19833L69.1226 9.57975ZM70.3818 9.39019L70.4522 9.76883C70.8453 9.6957 71.2208 9.61787 71.5786 9.53528L71.492 9.16001L71.4054 8.78474C71.0592 8.86464 70.6945 8.94026 70.3113 9.01155L70.3818 9.39019ZM71.492 9.16001L71.5786 9.53528C71.9405 9.45177 72.2978 9.35432 72.6506 9.24293L72.5346 8.87567L72.4186 8.50842C72.0853 8.61367 71.7476 8.70577 71.4054 8.78474L71.492 9.16001ZM72.5346 8.87567L72.6506 9.24293C73.0044 9.13121 73.362 9.00113 73.7234 8.85287L73.5772 8.49656L73.431 8.14024C73.0883 8.28083 72.7509 8.4035 72.4186 8.50842L72.5346 8.87567ZM73.5772 8.49656L73.3114 8.77529L73.8936 9.33043L74.1594 9.05169L74.4252 8.77296L73.8429 8.21782L73.5772 8.49656ZM74.1594 9.05169H73.7743V27.6691H74.1594H74.5445V9.05169H74.1594ZM74.1594 27.6691H73.7743C73.7743 27.8616 73.8602 28.0203 73.9643 28.1393L74.2542 27.8857L74.544 27.6321C74.5329 27.6194 74.5329 27.6161 74.5359 27.623C74.5395 27.6311 74.5445 27.6473 74.5445 27.6691H74.1594ZM74.2542 27.8857L73.9818 28.158C74.089 28.2652 74.2367 28.3549 74.3934 28.4333L74.5656 28.0888L74.7378 27.7443C74.6056 27.6782 74.5457 27.6326 74.5265 27.6134L74.2542 27.8857ZM74.5656 28.0888L74.4016 28.4373C74.5791 28.5208 74.7978 28.5994 75.0519 28.6747L75.1613 28.3054L75.2708 27.9362C75.0375 27.867 74.859 27.8012 74.7296 27.7403L74.5656 28.0888ZM75.1613 28.3054L75.0679 28.6791C75.3332 28.7454 75.6549 28.8104 76.0308 28.8746L76.0956 28.495L76.1604 28.1153C75.7961 28.0532 75.4949 27.9918 75.2548 27.9318L75.1613 28.3054ZM76.0956 28.495H75.7105V29.4834H76.0956H76.4807V28.495H76.0956ZM76.0956 29.4834V29.0983H68.9872V29.4834V29.8685H76.0956V29.4834ZM97.6457 27.9669L97.8553 28.29L98.1053 28.1279L98.0111 27.8451L97.6457 27.9669ZM96.5354 28.6304L96.3484 28.2937L96.3452 28.2955L96.5354 28.6304ZM95.371 29.2532L95.1987 28.9087L95.1954 28.9104L95.371 29.2532ZM94.369 29.7136L94.2279 29.3552L94.2241 29.3568L94.369 29.7136ZM93.2994 29.7948L93.4461 29.4385L93.4346 29.4342L93.2994 29.7948ZM92.8797 29.4699L92.5696 29.6983L92.5764 29.7076L92.5838 29.7164L92.8797 29.4699ZM92.5412 28.7793L92.1758 28.9011L92.1769 28.9045L92.5412 28.7793ZM92.311 27.642L92.6935 27.597L92.6082 26.8723L92.058 27.3515L92.311 27.642ZM90.7945 28.8199L91.0051 29.1424L91.0067 29.1414L90.7945 28.8199ZM89.5759 29.4969L89.4211 29.1443L89.4179 29.1457L89.5759 29.4969ZM88.574 29.8084L88.5179 29.4272L88.507 29.4291L88.574 29.8084ZM85.3379 29.0772L85.0694 29.3534L85.0735 29.3572L85.3379 29.0772ZM84.2277 19.1525L83.8428 19.1667L83.8431 19.1744L83.8437 19.182L84.2277 19.1525ZM84.0516 18.6109L83.7488 18.8488L83.7583 18.8608L83.7686 18.8721L84.0516 18.6109ZM83.5642 18.3536L83.4857 18.7307L83.4887 18.7313L83.5642 18.3536ZM82.6164 18.2182H82.2313V18.5637L82.5748 18.6011L82.6164 18.2182ZM82.6164 17.2704L82.5857 16.8865L82.2313 16.9149V17.2704H82.6164ZM83.8485 17.1486L83.803 16.7661L83.8019 16.7662L83.8485 17.1486ZM84.9317 16.9996L84.9918 17.3802L85.0015 17.3784L84.9317 16.9996ZM85.9472 16.783L85.8585 16.4082L85.8562 16.4088L85.9472 16.783ZM87.0304 16.4851L87.3369 16.2519L87.1738 16.0375L86.9165 16.1172L87.0304 16.4851ZM87.5043 17.1079H87.8895V16.9781L87.8108 16.8747L87.5043 17.1079ZM87.5991 26.2203L87.2199 26.2883L87.2218 26.2977L87.5991 26.2203ZM87.9105 27.0462L87.5922 27.2632L87.5971 27.2701L87.9105 27.0462ZM88.3979 27.4389L88.2608 27.7988L88.2663 27.8008L88.3979 27.4389ZM89.6842 27.4795L89.6087 27.1018L89.6057 27.1025L89.6842 27.4795ZM90.4154 27.2358L90.573 27.5873L90.5783 27.5848L90.4154 27.2358ZM91.2819 26.7348L91.0704 26.4129L91.0662 26.4158L91.2819 26.7348ZM92.311 25.9359L92.5651 26.2254L92.6961 26.1103V25.9359H92.311ZM92.2568 19.1795L91.8738 19.2221L91.8758 19.236L92.2568 19.1795ZM91.4986 18.3265L91.412 18.7018L91.415 18.7025L91.4986 18.3265ZM90.5237 18.2182H90.1386V18.587L90.507 18.603L90.5237 18.2182ZM90.5237 17.2704L90.4892 16.8868L90.1386 16.9184V17.2704H90.5237ZM92.9744 16.9455L93.0446 17.3242L93.0482 17.3235L92.9744 16.9455ZM95.0596 16.4851L95.3597 16.2437L95.2052 16.0517L94.9662 16.1115L95.0596 16.4851ZM95.5606 17.1079H95.9457V16.9723L95.8607 16.8665L95.5606 17.1079ZM95.5741 26.3421L95.1894 26.3605L95.1894 26.3614L95.5741 26.3421ZM95.6147 26.8025L95.2334 26.857L95.2358 26.8732L95.2394 26.8891L95.6147 26.8025ZM95.7095 27.0868L95.365 27.2591L95.3732 27.2754L95.3829 27.291L95.7095 27.0868ZM95.872 27.2629L95.648 27.5764L95.6583 27.5833L95.872 27.2629ZM96.3188 27.317L96.3909 27.6956L96.4041 27.6926L96.3188 27.317ZM97.3072 26.9514L97.6726 26.8296L97.5399 26.4316L97.1547 26.5978L97.3072 26.9514ZM97.6457 27.9669L97.4361 27.6438C97.1106 27.855 96.7481 28.0716 96.3484 28.2937L96.5354 28.6304L96.7225 28.9671C97.1351 28.7378 97.5128 28.5122 97.8553 28.29L97.6457 27.9669ZM96.5354 28.6304L96.3452 28.2955C95.9535 28.5181 95.5713 28.7225 95.1988 28.9087L95.371 29.2532L95.5432 29.5977C95.9289 29.4049 96.323 29.194 96.7257 28.9652L96.5354 28.6304ZM95.371 29.2532L95.1954 28.9104C94.8334 29.0958 94.5112 29.2436 94.2279 29.3552L94.369 29.7136L94.5102 30.0719C94.8227 29.9488 95.1684 29.7897 95.5466 29.596L95.371 29.2532ZM94.369 29.7136L94.2241 29.3568C94.0862 29.4128 93.9771 29.4518 93.8943 29.4762C93.8044 29.5028 93.7707 29.5045 93.7733 29.5045V29.8896V30.2747C93.8842 30.2747 94.0039 30.2471 94.1126 30.2149C94.2284 30.1807 94.3631 30.1317 94.514 30.0704L94.369 29.7136ZM93.7733 29.8896V29.5045C93.6622 29.5045 93.554 29.4831 93.446 29.4387L93.2994 29.7948L93.1528 30.1509C93.3517 30.2329 93.5594 30.2747 93.7733 30.2747V29.8896ZM93.2994 29.7948L93.4346 29.4342C93.3717 29.4106 93.2833 29.3527 93.1755 29.2233L92.8797 29.4699L92.5838 29.7164C92.7468 29.912 92.9382 30.0707 93.1642 30.1554L93.2994 29.7948ZM92.8797 29.4699L93.1897 29.2414C93.0942 29.1118 92.997 28.9206 92.9054 28.6541L92.5412 28.7793L92.1769 28.9045C92.2839 29.2157 92.4124 29.4849 92.5696 29.6983L92.8797 29.4699ZM92.5412 28.7793L92.9065 28.6575C92.8185 28.3933 92.7459 28.0423 92.6935 27.597L92.311 27.642L91.9285 27.687C91.9844 28.1623 92.0653 28.5696 92.1758 28.9011L92.5412 28.7793ZM92.311 27.642L92.058 27.3515C91.5069 27.8316 91.0153 28.2128 90.5824 28.4985L90.7945 28.8199L91.0067 29.1414C91.4764 28.8313 91.9958 28.4272 92.5639 27.9324L92.311 27.642ZM90.7945 28.8199L90.5839 28.4975C90.1543 28.7781 89.767 28.9925 89.4211 29.1443L89.5759 29.4969L89.7307 29.8496C90.1251 29.6765 90.5501 29.4395 91.0051 29.1424L90.7945 28.8199ZM89.5759 29.4969L89.4179 29.1457C89.0808 29.2974 88.7815 29.3886 88.5179 29.4273L88.574 29.8084L88.63 30.1894C88.9803 30.1379 89.3489 30.0214 89.734 29.8482L89.5759 29.4969ZM88.574 29.8084L88.507 29.4291C88.2205 29.4796 87.9451 29.5045 87.6803 29.5045V29.8896V30.2747C87.9933 30.2747 88.3136 30.2454 88.6409 30.1876L88.574 29.8084ZM87.6803 29.8896V29.5045C87.2921 29.5045 86.9129 29.4508 86.5416 29.3436L86.4347 29.7136L86.3278 30.0836C86.7688 30.211 87.22 30.2747 87.6803 30.2747V29.8896ZM86.4347 29.7136L86.5416 29.3436C86.1977 29.2442 85.8854 29.0645 85.6024 28.7972L85.3379 29.0772L85.0735 29.3572C85.4404 29.7037 85.8593 29.9482 86.3278 30.0836L86.4347 29.7136ZM85.3379 29.0772L85.6064 28.8011C85.3326 28.5348 85.0982 28.16 84.9142 27.6583L84.5526 27.7909L84.191 27.9235C84.4042 28.505 84.6934 28.9877 85.0695 29.3533L85.3379 29.0772ZM84.5526 27.7909L84.9142 27.6583C84.7367 27.1742 84.6399 26.5284 84.6399 25.7058H84.2547H83.8696C83.8696 26.5802 83.9714 27.3244 84.191 27.9235L84.5526 27.7909ZM84.2547 25.7058H84.6399V20.1544H84.2547H83.8696V25.7058H84.2547ZM84.2547 20.1544H84.6399C84.6399 19.718 84.6309 19.3724 84.6117 19.1229L84.2277 19.1525L83.8437 19.182C83.8606 19.4019 83.8696 19.7243 83.8696 20.1544H84.2547ZM84.2277 19.1525L84.6125 19.1382C84.6018 18.8491 84.5309 18.5622 84.3346 18.3496L84.0516 18.6109L83.7686 18.8721C83.789 18.8942 83.8354 18.9684 83.8428 19.1667L84.2277 19.1525ZM84.0516 18.6109L84.3545 18.3729C84.1783 18.1487 83.9172 18.0314 83.6397 17.9759L83.5642 18.3536L83.4887 18.7313C83.6626 18.766 83.7264 18.8203 83.7488 18.8488L84.0516 18.6109ZM83.5642 18.3536L83.6428 17.9766C83.4075 17.9276 83.0768 17.8808 82.658 17.8353L82.6164 18.2182L82.5748 18.6011C82.9864 18.6458 83.2876 18.6894 83.4857 18.7306L83.5642 18.3536ZM82.6164 18.2182H83.0015V17.2704H82.6164H82.2313V18.2182H82.6164ZM82.6164 17.2704L82.6471 17.6543C83.1027 17.6179 83.5188 17.5768 83.8952 17.5309L83.8485 17.1486L83.8019 16.7662C83.4381 16.8106 83.0328 16.8507 82.5857 16.8865L82.6164 17.2704ZM83.8485 17.1486L83.8941 17.531C84.2776 17.4853 84.6435 17.435 84.9918 17.38L84.9317 16.9996L84.8717 16.6192C84.5339 16.6725 84.1777 16.7215 83.803 16.7661L83.8485 17.1486ZM84.9317 16.9996L85.0015 17.3784C85.3515 17.3139 85.6971 17.2402 86.0383 17.1572L85.9472 16.783L85.8562 16.4088C85.5294 16.4883 85.198 16.559 84.862 16.6209L84.9317 16.9996ZM85.9472 16.783L86.036 17.1577C86.3884 17.0743 86.7579 16.9726 87.1443 16.853L87.0304 16.4851L86.9165 16.1172C86.5447 16.2323 86.1921 16.3292 85.8585 16.4082L85.9472 16.783ZM87.0304 16.4851L86.7239 16.7183L87.1978 17.3411L87.5043 17.1079L87.8108 16.8747L87.3369 16.2519L87.0304 16.4851ZM87.5043 17.1079H87.1192V24.8528H87.5043H87.8895V17.1079H87.5043ZM87.5043 24.8528H87.1192C87.1192 25.424 87.1512 25.905 87.22 26.2883L87.5991 26.2203L87.9782 26.1522C87.9206 25.8315 87.8895 25.4008 87.8895 24.8528H87.5043ZM87.5991 26.2203L87.2218 26.2977C87.2997 26.6772 87.4176 27.0069 87.5923 27.2632L87.9105 27.0462L88.2287 26.8293C88.1326 26.6883 88.0429 26.4674 87.9764 26.1429L87.5991 26.2203ZM87.9105 27.0462L87.5971 27.2701C87.7699 27.5119 87.9903 27.6957 88.2608 27.7988L88.3979 27.4389L88.5351 27.079C88.4265 27.0376 88.3219 26.9596 88.2239 26.8224L87.9105 27.0462ZM88.3979 27.4389L88.2663 27.8008C88.5145 27.8911 88.7859 27.9323 89.0749 27.9323V27.5472V27.1621C88.8585 27.1621 88.6786 27.1311 88.5296 27.0769L88.3979 27.4389ZM89.0749 27.5472V27.9323C89.2948 27.9323 89.5245 27.9062 89.7628 27.8565L89.6842 27.4795L89.6057 27.1025C89.4107 27.1431 89.2342 27.1621 89.0749 27.1621V27.5472ZM89.6842 27.4795L89.7598 27.8571C90.0196 27.8052 90.291 27.7136 90.5729 27.5872L90.4154 27.2358L90.2579 26.8843C90.0162 26.9927 89.8002 27.0635 89.6087 27.1018L89.6842 27.4795ZM90.4154 27.2358L90.5783 27.5848C90.8712 27.4481 91.1778 27.2702 91.4977 27.0538L91.2819 26.7348L91.0662 26.4158C90.7723 26.6146 90.5012 26.7707 90.2525 26.8868L90.4154 27.2358ZM91.2819 26.7348L91.4935 27.0567C91.828 26.8368 92.1853 26.5588 92.5651 26.2254L92.311 25.9359L92.0569 25.6465C91.6964 25.963 91.3677 26.2176 91.0704 26.4129L91.2819 26.7348ZM92.311 25.9359H92.6961V20.1544H92.311H91.9258V25.9359H92.311ZM92.311 20.1544H92.6961C92.6961 19.7397 92.6779 19.3936 92.6378 19.1231L92.2568 19.1795L91.8758 19.236C91.908 19.4529 91.9258 19.7567 91.9258 20.1544H92.311ZM92.2568 19.1795L92.6396 19.137C92.607 18.8436 92.5154 18.5711 92.3312 18.3586L92.0402 18.6109L91.7491 18.8631C91.7996 18.9214 91.8525 19.0281 91.874 19.2221L92.2568 19.1795ZM92.0402 18.6109L92.3312 18.3586C92.1421 18.1405 91.8755 18.0158 91.5821 17.9506L91.4986 18.3265L91.415 18.7025C91.6091 18.7456 91.7035 18.8105 91.7491 18.8631L92.0402 18.6109ZM91.4986 18.3265L91.5852 17.9513C91.3169 17.8893 90.9649 17.8519 90.5404 17.8334L90.5237 18.2182L90.507 18.603C90.913 18.6206 91.2109 18.6554 91.412 18.7018L91.4986 18.3265ZM90.5237 18.2182H90.9088V17.2704H90.5237H90.1386V18.2182H90.5237ZM90.5237 17.2704L90.5582 17.654C91.4704 17.5719 92.2994 17.4621 93.0446 17.3242L92.9744 16.9455L92.9043 16.5668C92.1871 16.6996 91.3824 16.8064 90.4892 16.8868L90.5237 17.2704ZM92.9744 16.9455L93.0482 17.3235C93.7942 17.1779 94.4958 17.023 95.153 16.8587L95.0596 16.4851L94.9662 16.1115C94.3235 16.2721 93.6351 16.4242 92.9007 16.5674L92.9744 16.9455ZM95.0596 16.4851L94.7595 16.7265L95.2605 17.3493L95.5606 17.1079L95.8607 16.8665L95.3597 16.2437L95.0596 16.4851ZM95.5606 17.1079H95.1754V25.6381H95.5606H95.9457V17.1079H95.5606ZM95.5606 25.6381H95.1754C95.1754 25.9214 95.18 26.1627 95.1894 26.3605L95.5741 26.3421L95.9588 26.3238C95.9502 26.1425 95.9457 25.9144 95.9457 25.6381H95.5606ZM95.5741 26.3421L95.1894 26.3614C95.1988 26.5493 95.2132 26.7152 95.2334 26.857L95.6147 26.8025L95.996 26.748C95.9801 26.637 95.9674 26.4961 95.9587 26.3229L95.5741 26.3421ZM95.6147 26.8025L95.2394 26.8891C95.2704 27.0231 95.3104 27.1498 95.365 27.2591L95.7095 27.0868L96.054 26.9146C96.0364 26.8794 96.0132 26.8166 95.99 26.7159L95.6147 26.8025ZM95.7095 27.0868L95.3829 27.291C95.4522 27.4018 95.54 27.4991 95.6481 27.5763L95.872 27.2629L96.0958 26.9495C96.0775 26.9364 96.0571 26.9163 96.0361 26.8827L95.7095 27.0868ZM95.872 27.2629L95.6583 27.5833C95.8836 27.7335 96.1495 27.7413 96.3909 27.6953L96.3188 27.317L96.2467 26.9387C96.109 26.9649 96.0769 26.9366 96.0856 26.9424L95.872 27.2629ZM96.3188 27.317L96.4041 27.6926C96.6412 27.6387 97 27.5034 97.4597 27.3051L97.3072 26.9514L97.1547 26.5978C96.6937 26.7967 96.3936 26.9051 96.2334 26.9415L96.3188 27.317ZM97.3072 26.9514L96.9418 27.0732L97.2803 28.0887L97.6457 27.9669L98.0111 27.8451L97.6726 26.8296L97.3072 26.9514ZM113.292 27.3847L113.518 27.697L113.805 27.4895L113.622 27.1859L113.292 27.3847ZM110.246 29.2938L110.412 29.6413L110.415 29.6398L110.246 29.2938ZM107.172 29.6594L107.326 29.3063L107.322 29.3045L107.172 29.6594ZM106.265 28.9824L105.968 29.2273L105.972 29.2324L106.265 28.9824ZM105.656 27.8315L105.29 27.9512L105.291 27.9533L105.656 27.8315ZM105.426 18.5838H105.811V18.1986H105.426V18.5838ZM103.787 18.5838L103.487 18.8254L103.603 18.9689H103.787V18.5838ZM103.395 18.0963L103.105 17.8425L102.892 18.0859L103.095 18.338L103.395 18.0963ZM104.451 16.8913V16.5062H104.276L104.161 16.6375L104.451 16.8913ZM105.426 16.8913V17.2764H105.811V16.8913H105.426ZM105.426 14.0615L105.197 13.7515L105.041 13.867V14.0615H105.426ZM108.161 12.044L108.413 11.7532L108.18 11.551L107.932 11.7341L108.161 12.044ZM108.675 12.4908H109.06V12.3152L108.928 12.2L108.675 12.4908ZM108.675 16.8913H108.29V17.2764H108.675V16.8913ZM112.805 16.8913L113.077 16.619L112.964 16.5062H112.805V16.8913ZM113.292 17.3787L113.633 17.5589L113.766 17.3075L113.565 17.1064L113.292 17.3787ZM112.981 17.8662L112.671 17.6377L112.669 17.6407L112.981 17.8662ZM112.615 18.3536L112.913 18.5985L112.919 18.5901L112.615 18.3536ZM112.236 18.7733L111.964 18.501L111.959 18.5061L111.954 18.5113L112.236 18.7733ZM111.925 19.0577L111.753 19.4022L111.958 19.5047L112.146 19.3732L111.925 19.0577ZM111.505 18.8952L111.383 19.2606L111.389 19.2625L111.505 18.8952ZM110.95 18.7463L110.853 19.1189L110.86 19.1209L110.868 19.1226L110.95 18.7463ZM110.287 18.6244L110.241 19.0068L110.242 19.007L110.287 18.6244ZM108.675 18.5838V18.1986H108.29V18.5838H108.675ZM108.757 26.0984L108.377 26.1617L108.377 26.1635L108.757 26.0984ZM108.987 26.8702L108.642 27.0424L108.647 27.052L108.652 27.0613L108.987 26.8702ZM109.352 27.2899L109.139 27.6104L109.151 27.6185L109.163 27.6256L109.352 27.2899ZM110.327 27.3712L110.387 27.7516L110.395 27.7504L110.403 27.7488L110.327 27.3712ZM111.695 26.9108L111.853 27.2619L111.858 27.2595L111.695 26.9108ZM112.697 26.3963L113.026 26.1975L112.836 25.881L112.512 26.0585L112.697 26.3963ZM113.292 27.3847L113.067 27.0724C111.875 27.9328 110.879 28.5552 110.077 28.9479L110.246 29.2938L110.415 29.6398C111.273 29.22 112.309 28.5697 113.518 27.697L113.292 27.3847ZM110.246 29.2938L110.08 28.9464C109.262 29.3376 108.672 29.5045 108.283 29.5045V29.8896V30.2747C108.85 30.2747 109.569 30.0445 110.412 29.6413L110.246 29.2938ZM108.283 29.8896V29.5045C107.947 29.5045 107.629 29.4384 107.326 29.3064L107.172 29.6594L107.018 30.0125C107.42 30.1873 107.842 30.2747 108.283 30.2747V29.8896ZM107.172 29.6594L107.322 29.3045C107.039 29.1853 106.784 28.9976 106.558 28.7325L106.265 28.9824L105.972 29.2324C106.27 29.5811 106.62 29.8447 107.023 30.0144L107.172 29.6594ZM106.265 28.9824L106.562 28.7376C106.346 28.4742 106.163 28.1348 106.021 27.7097L105.656 27.8315L105.291 27.9533C105.456 28.4489 105.679 28.8768 105.968 29.2273L106.265 28.9824ZM105.656 27.8315L106.022 27.7119C105.884 27.2902 105.811 26.7817 105.811 26.1797H105.426H105.041C105.041 26.8414 105.121 27.4341 105.29 27.9512L105.656 27.8315ZM105.426 26.1797H105.811V18.5838H105.426H105.041V26.1797H105.426ZM105.426 18.5838V18.1986H103.787V18.5838V18.9689H105.426V18.5838ZM103.787 18.5838L104.087 18.3422L103.695 17.8547L103.395 18.0963L103.095 18.338L103.487 18.8254L103.787 18.5838ZM103.395 18.0963L103.684 18.3502L104.74 17.1451L104.451 16.8913L104.161 16.6375L103.105 17.8425L103.395 18.0963ZM104.451 16.8913V17.2764H105.426V16.8913V16.5062H104.451V16.8913ZM105.426 16.8913H105.811V14.0615H105.426H105.041V16.8913H105.426ZM105.426 14.0615L105.654 14.3714L108.389 12.354L108.161 12.044L107.932 11.7341L105.197 13.7515L105.426 14.0615ZM108.161 12.044L107.908 12.3348L108.423 12.7816L108.675 12.4908L108.928 12.2L108.413 11.7532L108.161 12.044ZM108.675 12.4908H108.29V16.8913H108.675H109.06V12.4908H108.675ZM108.675 16.8913V17.2764H112.805V16.8913V16.5062H108.675V16.8913ZM112.805 16.8913L112.533 17.1636L113.02 17.6511L113.292 17.3787L113.565 17.1064L113.077 16.619L112.805 16.8913ZM113.292 17.3787L112.952 17.1985C112.881 17.3319 112.788 17.4782 112.671 17.6377L112.981 17.8662L113.291 18.0946C113.426 17.9111 113.541 17.7325 113.633 17.5589L113.292 17.3787ZM112.981 17.8662L112.669 17.6407C112.554 17.7994 112.435 17.9582 112.311 18.1172L112.615 18.3536L112.919 18.5901C113.049 18.4241 113.173 18.2579 113.293 18.0917L112.981 17.8662ZM112.615 18.3536L112.318 18.1088C112.199 18.2537 112.081 18.3843 111.964 18.501L112.236 18.7733L112.509 19.0457C112.645 18.9096 112.779 18.7604 112.913 18.5984L112.615 18.3536ZM112.236 18.7733L111.954 18.5113C111.846 18.6275 111.763 18.7007 111.704 18.7422L111.925 19.0577L112.146 19.3732C112.267 19.2882 112.392 19.1719 112.519 19.0354L112.236 18.7733ZM111.925 19.0577L112.097 18.7132C111.964 18.6468 111.804 18.5856 111.621 18.5279L111.505 18.8952L111.389 19.2625C111.55 19.3131 111.669 19.3603 111.753 19.4022L111.925 19.0577ZM111.505 18.8952L111.627 18.5298C111.449 18.4704 111.25 18.4173 111.032 18.3699L110.95 18.7463L110.868 19.1226C111.065 19.1655 111.237 19.2117 111.383 19.2606L111.505 18.8952ZM110.95 18.7463L111.047 18.3736C110.821 18.3145 110.582 18.2707 110.331 18.2418L110.287 18.6244L110.242 19.007C110.461 19.0322 110.664 19.0697 110.853 19.1189L110.95 18.7463ZM110.287 18.6244L110.332 18.242C110.09 18.213 109.84 18.1986 109.582 18.1986V18.5838V18.9689C109.812 18.9689 110.031 18.9817 110.241 19.0068L110.287 18.6244ZM109.582 18.5838V18.1986H108.675V18.5838V18.9689H109.582V18.5838ZM108.675 18.5838H108.29V24.9205H108.675H109.06V18.5838H108.675ZM108.675 24.9205H108.29C108.29 25.3944 108.318 25.8095 108.377 26.1617L108.757 26.0984L109.136 26.0351C109.087 25.7375 109.06 25.3673 109.06 24.9205H108.675ZM108.757 26.0984L108.377 26.1635C108.435 26.5017 108.52 26.7987 108.642 27.0424L108.987 26.8702L109.331 26.698C109.254 26.5445 109.186 26.327 109.136 26.0333L108.757 26.0984ZM108.987 26.8702L108.652 27.0613C108.781 27.2858 108.939 27.4776 109.139 27.6104L109.352 27.2899L109.566 26.9695C109.494 26.9217 109.409 26.8337 109.321 26.6791L108.987 26.8702ZM109.352 27.2899L109.163 27.6256C109.368 27.7404 109.591 27.7969 109.826 27.7969V27.4118V27.0267C109.718 27.0267 109.626 27.0019 109.541 26.9543L109.352 27.2899ZM109.826 27.4118V27.7969C110.01 27.7969 110.197 27.7816 110.387 27.7516L110.327 27.3712L110.267 26.9908C110.114 27.0149 109.967 27.0267 109.826 27.0267V27.4118ZM110.327 27.3712L110.403 27.7488C110.601 27.7092 110.818 27.6509 111.054 27.5755L110.936 27.2087L110.819 26.8419C110.603 26.9109 110.415 26.9609 110.252 26.9935L110.327 27.3712ZM110.936 27.2087L111.054 27.5755C111.297 27.4977 111.564 27.3926 111.853 27.2618L111.695 26.9108L111.536 26.5598C111.266 26.6818 111.027 26.7752 110.819 26.8419L110.936 27.2087ZM111.695 26.9108L111.858 27.2595C112.156 27.1198 112.498 26.9443 112.882 26.7341L112.697 26.3963L112.512 26.0585C112.137 26.2635 111.811 26.4311 111.531 26.5621L111.695 26.9108ZM112.697 26.3963L112.367 26.5951L112.963 27.5835L113.292 27.3847L113.622 27.1859L113.026 26.1975L112.697 26.3963Z" fill="#7614AC" mask="url(#path-3-outside-1_4637_3189)"/>
</svg>
