<svg xmlns="http://www.w3.org/2000/svg" xmlns:xlink="http://www.w3.org/1999/xlink" width="1080" zoomAndPan="magnify" viewBox="0 0 810 809.999993" height="1080" preserveAspectRatio="xMidYMid meet" version="1.0"><defs><clipPath id="c0b03a853a"><path d="M 133.039062 166.472656 L 704.539062 166.472656 L 704.539062 728.972656 L 133.039062 728.972656 Z M 133.039062 166.472656 " clip-rule="nonzero"/></clipPath></defs><rect x="-81" width="972" fill="#ffffff" y="-80.999999" height="971.999992" fill-opacity="1"/><rect x="-81" width="972" fill="#ffffff" y="-80.999999" height="971.999992" fill-opacity="1"/><g clip-path="url(#c0b03a853a)"><path fill="#000000" d="M 363.152344 682.566406 C 357.875 682.566406 352.652344 682.335938 347.492188 681.898438 C 340.871094 681.335938 335.632812 676.589844 334.425781 670.058594 L 331.488281 654.171875 C 330.4375 648.515625 326.476562 644.238281 320.914062 642.765625 C 307.964844 639.332031 295.703125 634.191406 284.386719 627.613281 C 279.410156 624.71875 273.582031 624.941406 268.839844 628.203125 L 257.535156 635.976562 C 251.90625 639.851562 244.570312 639.355469 239.515625 634.757812 C 233.660156 629.4375 228.152344 623.742188 223.027344 617.714844 C 218.710938 612.640625 218.347656 605.550781 222.121094 600.058594 L 229.6875 589.046875 C 232.949219 584.304688 233.171875 578.476562 230.277344 573.5 C 223.699219 562.183594 218.5625 549.925781 215.136719 536.972656 C 213.660156 531.40625 209.382812 527.441406 203.722656 526.394531 L 191.570312 524.148438 C 184.9375 522.921875 180.140625 517.523438 179.703125 510.789062 C 179.449219 506.800781 179.316406 502.769531 179.316406 498.714844 C 179.316406 494.65625 179.449219 490.628906 179.703125 486.636719 C 180.140625 479.90625 184.9375 474.507812 191.570312 473.277344 L 203.726562 471.03125 C 209.386719 469.980469 213.660156 466.019531 215.136719 460.457031 C 218.5625 447.5 223.699219 435.238281 230.277344 423.925781 C 233.171875 418.949219 232.949219 413.125 229.6875 408.378906 L 222.121094 397.367188 C 218.347656 391.875 218.710938 384.785156 223.027344 379.710938 C 228.148438 373.683594 233.660156 367.992188 239.511719 362.667969 C 244.566406 358.070312 251.902344 357.574219 257.535156 361.449219 L 268.839844 369.222656 C 273.585938 372.484375 279.414062 372.707031 284.386719 369.816406 C 295.703125 363.238281 307.960938 358.097656 320.910156 354.671875 C 326.472656 353.195312 330.4375 348.921875 331.488281 343.257812 L 334.429688 327.367188 C 335.636719 320.832031 340.878906 316.082031 347.496094 315.523438 C 352.65625 315.085938 357.878906 314.863281 363.152344 314.863281 C 368.425781 314.863281 373.644531 315.085938 378.800781 315.523438 C 385.421875 316.082031 390.65625 320.832031 391.871094 327.363281 L 394.816406 343.261719 C 395.863281 348.921875 399.828125 353.195312 405.390625 354.671875 C 418.339844 358.101562 430.605469 363.238281 441.921875 369.816406 C 446.898438 372.707031 452.726562 372.484375 457.46875 369.222656 L 468.769531 361.449219 C 474.402344 357.574219 481.734375 358.078125 486.792969 362.671875 C 492.640625 367.996094 498.152344 373.6875 503.277344 379.710938 C 507.59375 384.785156 507.960938 391.875 504.183594 397.367188 L 496.613281 408.378906 C 493.355469 413.125 493.136719 418.949219 496.027344 423.925781 C 502.605469 435.238281 507.746094 447.5 511.171875 460.457031 C 512.648438 466.019531 516.921875 469.980469 522.582031 471.03125 L 534.734375 473.277344 C 541.367188 474.507812 546.160156 479.90625 546.597656 486.636719 C 546.855469 490.625 546.988281 494.65625 546.988281 498.714844 C 546.988281 502.769531 546.855469 506.800781 546.597656 510.789062 C 546.164062 517.523438 541.367188 522.921875 534.734375 524.148438 L 522.582031 526.394531 C 516.925781 527.441406 512.648438 531.40625 511.171875 536.96875 C 507.746094 549.925781 502.605469 562.1875 496.027344 573.503906 C 493.136719 578.480469 493.355469 584.304688 496.613281 589.046875 L 504.183594 600.058594 C 507.957031 605.550781 507.59375 612.640625 503.277344 617.714844 C 498.152344 623.742188 492.644531 629.433594 486.792969 634.753906 C 481.738281 639.355469 474.402344 639.851562 468.773438 635.976562 L 457.46875 628.207031 C 452.726562 624.941406 446.898438 624.722656 441.921875 627.617188 C 430.609375 634.199219 418.34375 639.332031 405.386719 642.765625 C 399.828125 644.238281 395.863281 648.511719 394.816406 654.167969 L 391.871094 670.0625 C 390.65625 676.59375 385.421875 681.335938 378.804688 681.898438 C 373.648438 682.335938 368.429688 682.566406 363.152344 682.566406 Z M 313.886719 501.9375 L 342.796875 537.519531 C 347.007812 542.703125 354.730469 543.503906 359.917969 539.292969 L 359.925781 539.285156 C 360.710938 538.699219 361.4375 538.011719 362.078125 537.21875 L 383.507812 510.847656 L 383.507812 510.84375 L 390.988281 501.636719 L 412.414062 475.265625 C 416.628906 470.078125 415.828125 462.351562 410.644531 458.140625 C 405.460938 453.925781 397.734375 454.726562 393.523438 459.914062 L 372.132812 486.238281 L 372.089844 486.289062 L 364.617188 495.492188 L 352.316406 510.632812 L 332.78125 486.589844 C 328.570312 481.402344 320.84375 480.601562 315.660156 484.816406 C 310.476562 489.027344 309.675781 496.753906 313.886719 501.9375 Z M 405.347656 325.113281 L 408.246094 340.773438 C 408.332031 341.234375 408.4375 341.347656 408.890625 341.464844 C 422.863281 345.167969 436.289062 350.742188 448.785156 358.003906 C 449.1875 358.238281 449.34375 358.230469 449.726562 357.964844 L 450.953125 357.125 C 450.484375 353.765625 450.238281 350.335938 450.238281 346.851562 C 450.238281 305.945312 483.402344 272.785156 524.300781 272.785156 C 565.199219 272.785156 598.363281 305.949219 598.363281 346.851562 C 598.363281 387.75 565.203125 420.921875 524.300781 420.921875 C 519.109375 420.921875 514.042969 420.382812 509.148438 419.367188 C 515.773438 431.207031 520.90625 443.839844 524.378906 456.957031 C 524.496094 457.40625 524.609375 457.511719 525.066406 457.597656 L 537.21875 459.847656 C 541.398438 460.617188 545.214844 462.269531 548.492188 464.597656 C 549.421875 460.542969 552.363281 457.5 556.429688 456.425781 C 566.28125 453.8125 575.613281 449.90625 584.214844 444.902344 C 588 442.699219 592.4375 442.867188 596.042969 445.347656 L 604.640625 451.257812 C 608.925781 454.203125 614.503906 453.828125 618.347656 450.332031 C 622.796875 446.28125 626.984375 441.953125 630.886719 437.371094 C 634.167969 433.507812 634.445312 428.117188 631.574219 423.9375 L 625.820312 415.5625 C 623.339844 411.953125 623.171875 407.523438 625.371094 403.742188 C 630.375 395.132812 634.285156 385.804688 636.894531 375.949219 C 638.011719 371.71875 641.265625 368.703125 645.570312 367.90625 L 654.8125 366.199219 C 659.859375 365.265625 663.507812 361.160156 663.839844 356.035156 C 664.035156 353 664.132812 349.9375 664.132812 346.851562 C 664.132812 343.765625 664.035156 340.699219 663.839844 337.664062 C 663.507812 332.542969 659.859375 328.441406 654.8125 327.503906 L 645.570312 325.792969 C 641.265625 324.996094 638.011719 321.980469 636.894531 317.75 C 634.285156 307.898438 630.375 298.570312 625.371094 289.964844 C 623.171875 286.175781 623.339844 281.746094 625.820312 278.140625 L 631.578125 269.761719 C 634.445312 265.585938 634.167969 260.191406 630.886719 256.332031 C 626.988281 251.75 622.796875 247.417969 618.347656 243.371094 C 614.5 239.875 608.921875 239.496094 604.636719 242.441406 L 596.042969 248.355469 C 592.4375 250.835938 588 251.003906 584.214844 248.804688 C 575.609375 243.800781 566.277344 239.894531 556.429688 237.285156 C 552.199219 236.164062 549.183594 232.910156 548.386719 228.605469 L 546.144531 216.515625 C 545.222656 211.542969 541.238281 207.929688 536.207031 207.507812 C 532.285156 207.175781 528.3125 207.003906 524.300781 207.003906 C 520.292969 207.003906 516.316406 207.175781 512.394531 207.507812 C 507.359375 207.929688 503.371094 211.542969 502.453125 216.515625 L 500.214844 228.601562 C 499.417969 232.910156 496.402344 236.164062 492.171875 237.285156 C 482.316406 239.890625 472.996094 243.800781 464.390625 248.804688 C 460.605469 251.003906 456.171875 250.832031 452.5625 248.355469 L 443.960938 242.441406 C 439.679688 239.496094 434.101562 239.871094 430.253906 243.367188 C 425.804688 247.417969 421.609375 251.746094 417.714844 256.332031 C 414.433594 260.191406 414.15625 265.585938 417.027344 269.761719 L 422.78125 278.140625 C 425.261719 281.746094 425.429688 286.175781 423.230469 289.964844 C 418.226562 298.570312 414.320312 307.898438 411.710938 317.75 C 410.804688 321.183594 408.488281 323.816406 405.347656 325.113281 Z M 369.367188 283.425781 L 372.390625 281.082031 C 373.035156 280.636719 373.613281 280.074219 374.089844 279.394531 C 376.257812 276.316406 375.515625 272.058594 372.4375 269.894531 L 370.8125 268.746094 L 370.773438 268.71875 L 370.636719 268.617188 L 370.601562 268.597656 L 344.574219 250.195312 C 341.496094 248.027344 337.242188 248.769531 335.078125 251.847656 C 332.910156 254.925781 333.652344 259.183594 336.730469 261.347656 L 347.683594 269.09375 C 290.300781 272.902344 238.671875 297.746094 200.433594 335.984375 C 158.792969 377.628906 133.035156 435.164062 133.035156 498.714844 C 133.035156 562.261719 158.792969 619.800781 200.433594 661.445312 C 242.078125 703.09375 299.609375 728.851562 363.152344 728.851562 C 426.695312 728.851562 484.226562 703.089844 525.871094 661.445312 C 567.511719 619.800781 593.269531 562.261719 593.269531 498.714844 C 593.269531 494.941406 590.210938 491.882812 586.4375 491.882812 C 582.667969 491.882812 579.609375 494.941406 579.609375 498.714844 C 579.609375 558.492188 555.378906 612.613281 516.210938 651.789062 C 477.042969 690.957031 422.925781 715.1875 363.152344 715.1875 C 303.378906 715.1875 249.261719 690.957031 210.09375 651.789062 C 170.921875 612.617188 146.695312 558.492188 146.695312 498.714844 C 146.695312 438.9375 170.921875 384.816406 210.09375 345.640625 C 245.917969 309.816406 294.246094 286.492188 347.972656 282.769531 L 338.390625 290.191406 C 335.414062 292.492188 334.867188 296.769531 337.164062 299.746094 C 339.464844 302.71875 343.742188 303.269531 346.71875 300.96875 L 369.03125 283.683594 Z M 651.785156 423.417969 L 654.089844 454.203125 C 654.371094 457.960938 657.644531 460.78125 661.402344 460.503906 C 661.910156 460.464844 662.398438 460.371094 662.867188 460.230469 L 662.871094 460.234375 L 694.257812 450.730469 C 697.867188 449.640625 699.910156 445.828125 698.820312 442.21875 C 697.730469 438.609375 693.917969 436.566406 690.308594 437.65625 L 677.71875 441.46875 C 684.65625 430.25 690.394531 418.230469 694.75 405.585938 C 701.09375 387.167969 704.542969 367.40625 704.542969 346.851562 C 704.542969 297.078125 684.367188 252.011719 651.75 219.394531 C 619.132812 186.773438 574.070312 166.59375 524.300781 166.59375 C 502.445312 166.59375 481.472656 170.5 462.054688 177.648438 C 441.929688 185.054688 423.476562 195.964844 407.4375 209.640625 C 404.582031 212.085938 404.246094 216.386719 406.691406 219.242188 C 409.136719 222.101562 413.4375 222.4375 416.296875 219.992188 C 431.085938 207.378906 448.136719 197.304688 466.753906 190.457031 C 484.667969 183.863281 504.054688 180.257812 524.300781 180.257812 C 570.300781 180.257812 611.949219 198.90625 642.089844 229.050781 C 672.234375 259.195312 690.878906 300.847656 690.878906 346.851562 C 690.878906 365.871094 687.695312 384.144531 681.832031 401.15625 C 677.828125 412.777344 672.589844 423.804688 666.269531 434.082031 L 665.394531 422.402344 C 665.113281 418.648438 661.839844 415.828125 658.082031 416.105469 C 654.324219 416.386719 651.507812 419.660156 651.785156 423.417969 Z M 363.152344 401.339844 C 309.382812 401.339844 265.785156 444.9375 265.785156 498.714844 C 265.785156 552.492188 309.382812 596.089844 363.152344 596.089844 C 416.921875 596.089844 460.519531 552.484375 460.519531 498.714844 C 460.519531 444.945312 416.917969 401.339844 363.152344 401.339844 Z M 363.152344 401.339844 " fill-opacity="1" fill-rule="evenodd"/></g></svg>