<svg xmlns="http://www.w3.org/2000/svg" xmlns:xlink="http://www.w3.org/1999/xlink" width="1080" zoomAndPan="magnify" viewBox="0 0 810 809.999993" height="1080" preserveAspectRatio="xMidYMid meet" version="1.0"><defs><clipPath id="9849e10009"><path d="M 135.390625 137.160156 L 687.390625 137.160156 L 687.390625 689.160156 L 135.390625 689.160156 Z M 135.390625 137.160156 " clip-rule="nonzero"/></clipPath></defs><rect x="-81" width="972" fill="#ffffff" y="-80.999999" height="971.999992" fill-opacity="1"/><rect x="-81" width="972" fill="#ffffff" y="-80.999999" height="971.999992" fill-opacity="1"/><path fill="#000000" d="M 422.585938 500.226562 L 422.585938 630.558594 C 431.609375 630.101562 440.476562 629.023438 449.179688 627.5 C 479.402344 605.667969 504.199219 558.871094 516.808594 500.226562 Z M 422.585938 500.226562 " fill-opacity="1" fill-rule="nonzero"/><path fill="#000000" d="M 400.195312 326.089844 L 400.195312 195.75 C 391.167969 196.207031 382.308594 197.285156 373.605469 198.820312 C 343.382812 220.648438 318.585938 267.449219 305.976562 326.089844 Z M 400.195312 326.089844 " fill-opacity="1" fill-rule="nonzero"/><path fill="#000000" d="M 610.84375 326.089844 C 588.109375 274.226562 545.734375 232.878906 493.175781 211.480469 C 514.425781 240.027344 530.847656 279.601562 540.015625 326.089844 Z M 610.84375 326.089844 " fill-opacity="1" fill-rule="nonzero"/><path fill="#000000" d="M 449.179688 198.820312 C 440.476562 197.292969 431.609375 196.207031 422.585938 195.75 L 422.585938 326.082031 L 516.816406 326.082031 C 504.207031 267.4375 479.402344 220.640625 449.179688 198.820312 Z M 449.179688 198.820312 " fill-opacity="1" fill-rule="nonzero"/><path fill="#000000" d="M 373.605469 627.5 C 382.308594 629.023438 391.175781 630.101562 400.195312 630.558594 L 400.195312 500.226562 L 305.96875 500.226562 C 318.585938 558.878906 343.382812 605.675781 373.605469 627.5 Z M 373.605469 627.5 " fill-opacity="1" fill-rule="nonzero"/><path fill="#000000" d="M 211.9375 500.226562 C 234.675781 552.089844 277.050781 593.4375 329.609375 614.835938 C 308.359375 586.28125 291.9375 546.726562 282.769531 500.226562 Z M 211.9375 500.226562 " fill-opacity="1" fill-rule="nonzero"/><path fill="#000000" d="M 493.175781 614.84375 C 545.734375 593.445312 588.109375 552.097656 610.84375 500.238281 L 540.015625 500.238281 C 530.855469 546.726562 514.425781 586.289062 493.175781 614.84375 Z M 493.175781 614.84375 " fill-opacity="1" fill-rule="nonzero"/><path fill="#000000" d="M 329.609375 211.472656 C 277.050781 232.871094 234.675781 274.226562 211.9375 326.082031 L 282.769531 326.082031 C 291.925781 279.589844 308.347656 240.027344 329.609375 211.472656 Z M 329.609375 211.472656 " fill-opacity="1" fill-rule="nonzero"/><g clip-path="url(#9849e10009)"><path fill="#000000" d="M 411.390625 137.160156 C 259.203125 137.160156 135.390625 260.96875 135.390625 413.160156 C 135.390625 565.347656 259.203125 689.160156 411.390625 689.160156 C 563.582031 689.160156 687.390625 565.347656 687.390625 413.160156 C 687.390625 260.96875 563.582031 137.160156 411.390625 137.160156 Z M 411.390625 661.402344 C 274.503906 661.402344 163.148438 550.039062 163.148438 413.160156 C 163.148438 276.269531 274.503906 164.914062 411.390625 164.914062 C 548.28125 164.914062 659.636719 276.269531 659.636719 413.160156 C 659.636719 550.046875 548.28125 661.402344 411.390625 661.402344 Z M 411.390625 661.402344 " fill-opacity="1" fill-rule="nonzero"/></g><path fill="#000000" d="M 258.089844 457.371094 L 276.894531 396.125 L 277.910156 396.125 L 296.707031 457.371094 L 311.671875 457.371094 L 342.867188 367.996094 L 326.632812 367.996094 L 304.125 432.316406 L 284.183594 367.996094 L 270.632812 367.996094 L 250.683594 432.316406 L 228.179688 367.996094 L 211.9375 367.996094 L 243.144531 457.371094 Z M 258.089844 457.371094 " fill-opacity="1" fill-rule="nonzero"/><path fill="#000000" d="M 445.667969 457.371094 L 476.863281 367.996094 L 460.632812 367.996094 L 438.121094 432.316406 L 418.179688 367.996094 L 404.628906 367.996094 L 384.679688 432.316406 L 362.179688 367.996094 L 345.9375 367.996094 L 377.140625 457.371094 L 392.089844 457.371094 L 410.890625 396.125 L 411.910156 396.125 L 430.703125 457.371094 Z M 445.667969 457.371094 " fill-opacity="1" fill-rule="nonzero"/><path fill="#000000" d="M 572.109375 432.316406 L 552.160156 367.996094 L 538.621094 367.996094 L 518.671875 432.316406 L 496.160156 367.996094 L 479.917969 367.996094 L 511.125 457.371094 L 526.078125 457.371094 L 544.882812 396.125 L 545.898438 396.125 L 564.691406 457.371094 L 579.65625 457.371094 L 610.84375 367.996094 L 594.613281 367.996094 Z M 572.109375 432.316406 " fill-opacity="1" fill-rule="nonzero"/></svg>