<svg xmlns="http://www.w3.org/2000/svg" xmlns:xlink="http://www.w3.org/1999/xlink" width="1080" zoomAndPan="magnify" viewBox="0 0 810 809.999993" height="1080" preserveAspectRatio="xMidYMid meet" version="1.0"><defs><clipPath id="d57d5288d8"><path d="M 113 106.605469 L 697.570312 106.605469 L 697.570312 703.605469 L 113 703.605469 Z M 113 106.605469 " clip-rule="nonzero"/></clipPath></defs><rect x="-81" width="972" fill="#ffffff" y="-80.999999" height="971.999992" fill-opacity="1"/><rect x="-81" width="972" fill="#000000" y="-80.999999" height="971.999992" fill-opacity="1"/><g clip-path="url(#d57d5288d8)"><path fill="#ffffff" d="M 460.597656 359.351562 L 678.035156 106.605469 L 626.507812 106.605469 L 437.71875 326.046875 L 286.917969 106.605469 L 113.003906 106.605469 L 341.035156 438.476562 L 113.003906 703.507812 L 164.53125 703.507812 L 363.917969 471.75 L 523.160156 703.507812 L 697.074219 703.507812 Z M 390.03125 441.386719 L 366.917969 408.347656 L 183.105469 145.378906 L 262.261719 145.378906 L 410.613281 357.574219 L 433.730469 390.617188 L 626.5625 666.449219 L 547.410156 666.449219 L 390.03125 441.359375 Z M 390.03125 441.386719 " fill-opacity="1" fill-rule="nonzero"/></g></svg>