<svg xmlns="http://www.w3.org/2000/svg" xmlns:xlink="http://www.w3.org/1999/xlink" width="1080" zoomAndPan="magnify" viewBox="0 0 810 809.999993" height="1080" preserveAspectRatio="xMidYMid meet" version="1.0"><rect x="-81" width="972" fill="#ffffff" y="-80.999999" height="971.999992" fill-opacity="1"/><rect x="-81" width="972" fill="#000000" y="-80.999999" height="971.999992" fill-opacity="1"/><path fill="#00aeef" d="M 471.636719 319.300781 C 469.570312 320.464844 467.46875 321.578125 465.433594 322.796875 C 432.90625 342.289062 400.28125 361.621094 367.929688 381.398438 C 356.980469 388.089844 345.933594 389.75 333.621094 386.480469 C 268.980469 369.316406 204.3125 352.242188 139.621094 335.261719 C 129.742188 332.648438 124.527344 326.761719 124.203125 318.171875 C 123.878906 309.570312 128.648438 303.253906 138.113281 299.785156 C 290.945312 243.78125 443.773438 187.777344 596.605469 131.773438 C 617.539062 124.101562 638.519531 116.546875 659.375 108.660156 C 667.144531 105.71875 674.183594 105.902344 680.175781 111.902344 C 686.167969 117.90625 686.234375 124.941406 683.378906 132.71875 C 635.15625 264.003906 587.003906 395.316406 538.914062 526.652344 C 523.359375 569.09375 507.808594 611.539062 492.261719 653.984375 C 488.800781 663.421875 482.421875 668.207031 473.839844 667.847656 C 465.257812 667.492188 459.347656 662.269531 456.742188 652.40625 C 439.722656 587.933594 422.699219 523.460938 405.679688 458.988281 C 402.226562 446.007812 404.050781 434.554688 411.164062 423.035156 C 430.765625 391.285156 449.726562 359.144531 468.933594 327.15625 C 470.257812 324.945312 471.5 322.679688 472.78125 320.441406 Z M 471.636719 319.300781 " fill-opacity="1" fill-rule="nonzero"/></svg>