<svg xmlns="http://www.w3.org/2000/svg" xmlns:xlink="http://www.w3.org/1999/xlink" width="1080" zoomAndPan="magnify" viewBox="0 0 810 809.999993" height="1080" preserveAspectRatio="xMidYMid meet" version="1.0"><defs><clipPath id="8adebc9b47"><path d="M 135.390625 129.503906 L 662.640625 129.503906 L 662.640625 675.503906 L 135.390625 675.503906 Z M 135.390625 129.503906 " clip-rule="nonzero"/></clipPath></defs><rect x="-81" width="972" fill="#ffffff" y="-80.999999" height="971.999992" fill-opacity="1"/><rect x="-81" width="972" fill="#ffffff" y="-80.999999" height="971.999992" fill-opacity="1"/><g clip-path="url(#8adebc9b47)"><path fill="#000000" d="M 190.992188 525.40625 L 190.953125 525.34375 L 190.925781 525.289062 L 185.179688 515.335938 L 135.433594 544.0625 L 211.148438 675.230469 L 260.894531 646.507812 Z M 459.949219 357.574219 C 440.410156 362.832031 418.667969 357.960938 403.089844 342.835938 C 387.75 327.941406 382.164062 306.777344 386.460938 287.324219 C 386.652344 286.453125 387.257812 285.804688 388.109375 285.546875 C 388.960938 285.292969 389.828125 285.5 390.464844 286.121094 L 423.683594 318.367188 C 424.25 318.917969 424.976562 319.144531 425.757812 319.011719 L 456.402344 313.75 C 457.445312 313.570312 458.21875 312.773438 458.367188 311.726562 L 462.703125 280.929688 C 462.8125 280.148438 462.566406 279.429688 462 278.878906 L 428.78125 246.636719 C 428.144531 246.015625 427.910156 245.15625 428.140625 244.296875 C 428.371094 243.433594 429 242.8125 429.867188 242.59375 C 449.175781 237.71875 470.496094 242.664062 485.835938 257.558594 C 501.414062 272.679688 506.933594 294.269531 502.265625 313.960938 C 502.066406 314.804688 502.304688 315.628906 502.925781 316.234375 L 600.292969 410.746094 C 611.820312 421.9375 612.101562 440.53125 600.910156 452.058594 C 589.71875 463.59375 571.132812 463.871094 559.605469 452.679688 L 462.238281 358.167969 C 461.617188 357.5625 460.785156 357.347656 459.949219 357.574219 Z M 504.578125 425.96875 L 467.253906 389.738281 C 437.203125 397.359375 404.015625 389.675781 380.132812 366.496094 C 343.527344 330.960938 342.652344 272.46875 378.179688 235.855469 C 413.707031 199.242188 472.183594 198.367188 508.792969 233.902344 C 532.671875 257.082031 541.34375 290.03125 534.628906 320.304688 L 571.953125 356.53125 C 575.835938 348.308594 578.859375 339.78125 581.023438 331.09375 C 582.324219 325.871094 586.269531 322.101562 591.550781 321.042969 L 603.839844 318.574219 C 610.113281 317.316406 614.558594 312.0625 614.765625 305.667969 C 614.996094 298.410156 614.769531 291.140625 614.078125 283.914062 C 613.488281 277.703125 608.964844 272.835938 602.8125 271.792969 L 590.78125 269.746094 C 585.476562 268.84375 581.421875 265.195312 579.964844 260.015625 C 576.691406 248.378906 571.867188 237.097656 565.5 226.488281 C 562.730469 221.875 562.855469 216.425781 565.835938 211.945312 L 572.089844 202.558594 C 575.585938 197.300781 575.085938 190.558594 570.84375 185.878906 C 568.378906 183.15625 565.8125 180.496094 563.140625 177.902344 C 560.464844 175.308594 557.726562 172.816406 554.933594 170.433594 C 550.132812 166.335938 543.375 166.035156 538.230469 169.691406 L 529.035156 176.21875 C 524.644531 179.332031 519.203125 179.621094 514.507812 176.992188 C 503.722656 170.941406 492.300781 166.457031 480.574219 163.535156 C 475.347656 162.234375 471.582031 158.292969 470.523438 153.011719 L 468.121094 141.042969 C 466.894531 134.925781 461.890625 130.550781 455.667969 130.144531 C 448.421875 129.671875 441.152344 129.660156 433.910156 130.109375 C 427.523438 130.503906 422.40625 135.109375 421.335938 141.414062 L 419.238281 153.78125 C 418.339844 159.089844 414.691406 163.144531 409.507812 164.605469 C 397.878906 167.875 386.59375 172.699219 375.988281 179.066406 C 371.378906 181.839844 365.925781 181.710938 361.445312 178.726562 L 349.125 170.523438 C 343.945312 167.078125 337.34375 167.503906 332.652344 171.589844 C 329.058594 174.714844 325.5625 178.023438 322.1875 181.503906 C 318.808594 184.980469 315.609375 188.578125 312.589844 192.265625 C 308.648438 197.078125 308.421875 203.691406 312.019531 208.761719 L 320.585938 220.839844 C 323.699219 225.226562 323.992188 230.671875 321.363281 235.367188 C 315.316406 246.15625 310.832031 257.585938 307.910156 269.308594 C 306.609375 274.535156 302.664062 278.304688 297.386719 279.363281 L 285.085938 281.828125 C 278.816406 283.085938 274.371094 288.339844 274.164062 294.734375 C 273.933594 301.988281 274.160156 309.257812 274.851562 316.488281 C 275.441406 322.699219 279.96875 327.570312 286.117188 328.613281 L 298.152344 330.652344 C 303.457031 331.554688 307.515625 335.203125 308.972656 340.382812 C 312.246094 352.019531 317.066406 363.304688 323.429688 373.910156 C 326.203125 378.523438 326.074219 383.976562 323.089844 388.453125 L 316.839844 397.84375 C 313.339844 403.101562 313.84375 409.84375 318.085938 414.523438 C 320.550781 417.246094 323.121094 419.90625 325.796875 422.503906 C 328.464844 425.09375 331.199219 427.585938 333.996094 429.96875 C 338.796875 434.066406 345.550781 434.367188 350.699219 430.710938 L 359.898438 424.179688 C 364.285156 421.066406 369.730469 420.777344 374.421875 423.40625 C 385.214844 429.453125 396.640625 433.9375 408.359375 436.863281 C 413.582031 438.164062 417.347656 442.109375 418.40625 447.386719 L 420.808594 459.355469 C 422.035156 465.472656 427.039062 469.851562 433.261719 470.257812 C 440.507812 470.730469 447.777344 470.738281 455.023438 470.292969 C 461.40625 469.894531 466.523438 465.292969 467.59375 458.988281 L 469.691406 446.621094 C 470.59375 441.3125 474.238281 437.257812 479.421875 435.796875 C 488.042969 433.375 496.472656 430.09375 504.578125 425.96875 Z M 418.726562 648.460938 C 402.894531 643.738281 388.007812 639.011719 369.285156 632.613281 C 350.03125 626.03125 327.019531 617.800781 295.269531 606.183594 C 292.328125 605.117188 289.203125 605.585938 286.773438 607.175781 L 266.855469 618.675781 L 212.253906 524.082031 L 258.03125 497.652344 C 258.273438 497.527344 258.511719 497.398438 258.746094 497.253906 L 259.472656 496.816406 L 262.007812 495.351562 C 272.828125 489.324219 284.167969 485.738281 296.027344 484.597656 C 307.769531 483.46875 320.128906 484.714844 333.09375 488.328125 C 333.316406 488.40625 333.542969 488.472656 333.777344 488.535156 L 334.636719 488.769531 C 335.765625 489.097656 336.902344 489.445312 338.042969 489.8125 C 338.707031 490.027344 339.378906 490.160156 340.046875 490.226562 L 438.578125 516.78125 C 442.832031 517.925781 446.226562 520.691406 448.261719 524.21875 L 448.28125 524.246094 L 448.261719 524.257812 C 450.300781 527.789062 451 532.105469 449.863281 536.351562 L 449.863281 536.355469 C 448.726562 540.59375 445.953125 543.984375 442.402344 546.035156 L 442.019531 546.269531 C 438.558594 548.132812 434.398438 548.734375 430.304688 547.636719 L 430.296875 547.636719 L 430.269531 547.628906 L 375.320312 532.90625 C 370.21875 531.542969 364.972656 534.574219 363.609375 539.679688 C 362.246094 544.785156 365.277344 550.03125 370.382812 551.394531 L 425.359375 566.125 L 463.65625 576.453125 L 463.660156 576.441406 C 466.023438 577.074219 468.632812 576.804688 470.917969 575.480469 L 636.664062 479.65625 L 636.652344 479.640625 C 643.113281 475.925781 649.472656 477.460938 654.148438 481.398438 C 656.179688 483.109375 657.96875 485.300781 659.394531 487.761719 C 660.8125 490.207031 661.816406 492.84375 662.300781 495.46875 C 663.367188 501.285156 661.714844 507.25 655.890625 510.617188 L 655.902344 510.632812 C 655.566406 510.828125 655.234375 511.046875 654.917969 511.289062 L 498.828125 629.8125 C 498.570312 629.980469 498.316406 630.164062 498.070312 630.359375 L 496.949219 631.242188 L 495.347656 632.457031 C 484.90625 640.230469 473.636719 645.492188 461.539062 648.238281 C 448.386719 651.222656 434.113281 651.296875 418.726562 648.460938 Z M 418.726562 648.460938 " fill-opacity="1" fill-rule="evenodd"/></g></svg>