<svg xmlns="http://www.w3.org/2000/svg" xmlns:xlink="http://www.w3.org/1999/xlink" width="1080" zoomAndPan="magnify" viewBox="0 0 810 809.999993" height="1080" preserveAspectRatio="xMidYMid meet" version="1.0"><defs><clipPath id="86cd07baa6"><path d="M 142.925781 127.152344 L 667.175781 127.152344 L 667.175781 651.402344 L 142.925781 651.402344 Z M 142.925781 127.152344 " clip-rule="nonzero"/></clipPath></defs><rect x="-81" width="972" fill="#ffffff" y="-80.999999" height="971.999992" fill-opacity="1"/><rect x="-81" width="972" fill="#ffffff" y="-80.999999" height="971.999992" fill-opacity="1"/><g clip-path="url(#86cd07baa6)"><path fill="#000000" d="M 405.050781 127.152344 C 400.761719 127.152344 396.476562 127.257812 392.191406 127.46875 C 387.90625 127.675781 383.628906 127.992188 379.359375 128.414062 C 375.089844 128.832031 370.835938 129.359375 366.589844 129.988281 C 362.347656 130.617188 358.121094 131.351562 353.914062 132.1875 C 349.707031 133.023438 345.523438 133.964844 341.359375 135.007812 C 337.199219 136.050781 333.066406 137.191406 328.960938 138.4375 C 324.855469 139.683594 320.785156 141.027344 316.746094 142.472656 C 312.707031 143.917969 308.703125 145.460938 304.742188 147.105469 C 300.777344 148.746094 296.855469 150.484375 292.980469 152.316406 C 289.101562 154.152344 285.269531 156.082031 281.488281 158.101562 C 277.703125 160.125 273.972656 162.238281 270.292969 164.445312 C 266.613281 166.648438 262.992188 168.945312 259.421875 171.328125 C 255.855469 173.710938 252.351562 176.179688 248.90625 178.734375 C 245.457031 181.289062 242.078125 183.929688 238.761719 186.652344 C 235.445312 189.371094 232.199219 192.171875 229.019531 195.054688 C 225.839844 197.933594 222.734375 200.890625 219.703125 203.925781 C 216.667969 206.960938 213.710938 210.066406 210.832031 213.242188 C 207.949219 216.421875 205.148438 219.667969 202.425781 222.984375 C 199.707031 226.300781 197.066406 229.683594 194.511719 233.128906 C 191.957031 236.574219 189.488281 240.082031 187.101562 243.648438 C 184.71875 247.214844 182.425781 250.835938 180.21875 254.515625 C 178.015625 258.195312 175.902344 261.929688 173.878906 265.710938 C 171.855469 269.496094 169.929688 273.324219 168.09375 277.203125 C 166.261719 281.082031 164.523438 285 162.878906 288.964844 C 161.238281 292.929688 159.695312 296.929688 158.25 300.96875 C 156.804688 305.007812 155.460938 309.078125 154.214844 313.183594 C 152.96875 317.289062 151.824219 321.421875 150.78125 325.585938 C 149.742188 329.746094 148.800781 333.929688 147.964844 338.136719 C 147.128906 342.34375 146.394531 346.570312 145.765625 350.8125 C 145.136719 355.058594 144.609375 359.3125 144.191406 363.582031 C 143.769531 367.851562 143.453125 372.128906 143.242188 376.414062 C 143.03125 380.699219 142.925781 384.984375 142.925781 389.277344 C 142.925781 393.566406 143.03125 397.851562 143.242188 402.136719 C 143.453125 406.421875 143.769531 410.699219 144.191406 414.96875 C 144.609375 419.238281 145.136719 423.496094 145.765625 427.738281 C 146.394531 431.980469 147.128906 436.207031 147.964844 440.414062 C 148.800781 444.621094 149.742188 448.804688 150.78125 452.96875 C 151.824219 457.128906 152.96875 461.261719 154.214844 465.367188 C 155.460938 469.472656 156.804688 473.542969 158.25 477.582031 C 159.695312 481.621094 161.238281 485.625 162.878906 489.585938 C 164.523438 493.550781 166.261719 497.472656 168.09375 501.347656 C 169.929688 505.226562 171.855469 509.058594 173.878906 512.839844 C 175.902344 516.625 178.015625 520.355469 180.21875 524.035156 C 182.425781 527.714844 184.71875 531.339844 187.101562 534.90625 C 189.488281 538.472656 191.957031 541.976562 194.511719 545.421875 C 197.066406 548.871094 199.707031 552.25 202.425781 555.566406 C 205.148438 558.882812 207.949219 562.128906 210.832031 565.308594 C 213.710938 568.488281 216.667969 571.59375 219.703125 574.625 C 222.734375 577.660156 225.839844 580.617188 229.019531 583.496094 C 232.199219 586.378906 235.445312 589.179688 238.761719 591.902344 C 242.078125 594.621094 245.457031 597.261719 248.90625 599.816406 C 252.351562 602.371094 255.855469 604.839844 259.421875 607.226562 C 262.992188 609.609375 266.613281 611.902344 270.292969 614.109375 C 273.972656 616.3125 277.703125 618.425781 281.488281 620.449219 C 285.269531 622.472656 289.101562 624.398438 292.980469 626.234375 C 296.855469 628.066406 300.777344 629.804688 304.742188 631.449219 C 308.703125 633.089844 312.707031 634.632812 316.746094 636.078125 C 320.785156 637.523438 324.855469 638.867188 328.960938 640.113281 C 333.066406 641.359375 337.199219 642.503906 341.359375 643.546875 C 345.523438 644.585938 349.707031 645.527344 353.914062 646.363281 C 358.121094 647.203125 362.347656 647.933594 366.589844 648.5625 C 370.835938 649.195312 375.089844 649.71875 379.359375 650.140625 C 383.628906 650.558594 387.90625 650.875 392.191406 651.085938 C 396.476562 651.296875 400.761719 651.402344 405.050781 651.402344 C 409.34375 651.402344 413.628906 651.296875 417.914062 651.085938 C 422.199219 650.875 426.476562 650.558594 430.746094 650.140625 C 435.015625 649.71875 439.269531 649.195312 443.515625 648.5625 C 447.757812 647.933594 451.984375 647.203125 456.191406 646.363281 C 460.398438 645.527344 464.582031 644.585938 468.742188 643.546875 C 472.90625 642.503906 477.039062 641.359375 481.144531 640.113281 C 485.25 638.867188 489.320312 637.523438 493.359375 636.078125 C 497.398438 634.632812 501.398438 633.089844 505.363281 631.449219 C 509.328125 629.804688 513.246094 628.066406 517.125 626.234375 C 521.003906 624.398438 524.832031 622.472656 528.617188 620.449219 C 532.402344 618.425781 536.132812 616.3125 539.8125 614.109375 C 543.492188 611.902344 547.113281 609.609375 550.679688 607.226562 C 554.246094 604.839844 557.753906 602.371094 561.199219 599.816406 C 564.644531 597.261719 568.027344 594.621094 571.34375 591.902344 C 574.660156 589.179688 577.90625 586.378906 581.085938 583.496094 C 584.261719 580.617188 587.371094 577.660156 590.402344 574.625 C 593.4375 571.59375 596.394531 568.488281 599.273438 565.308594 C 602.15625 562.128906 604.957031 558.882812 607.675781 555.566406 C 610.398438 552.25 613.039062 548.871094 615.59375 545.421875 C 618.148438 541.976562 620.617188 538.472656 623 534.90625 C 625.382812 531.339844 627.679688 527.714844 629.882812 524.035156 C 632.089844 520.355469 634.203125 516.625 636.226562 512.839844 C 638.246094 509.058594 640.175781 505.226562 642.011719 501.347656 C 643.84375 497.472656 645.582031 493.550781 647.222656 489.585938 C 648.867188 485.625 650.410156 481.621094 651.855469 477.582031 C 653.300781 473.542969 654.644531 469.472656 655.890625 465.367188 C 657.136719 461.261719 658.277344 457.128906 659.320312 452.96875 C 660.363281 448.804688 661.304688 444.621094 662.140625 440.414062 C 662.976562 436.207031 663.710938 431.980469 664.339844 427.738281 C 664.96875 423.496094 665.496094 419.238281 665.914062 414.96875 C 666.335938 410.699219 666.652344 406.421875 666.863281 402.136719 C 667.070312 397.851562 667.175781 393.566406 667.175781 389.277344 C 667.175781 384.984375 667.070312 380.699219 666.863281 376.414062 C 666.652344 372.128906 666.335938 367.851562 665.914062 363.582031 C 665.496094 359.3125 664.96875 355.058594 664.339844 350.8125 C 663.710938 346.570312 662.976562 342.34375 662.140625 338.136719 C 661.304688 333.929688 660.363281 329.746094 659.320312 325.585938 C 658.277344 321.421875 657.136719 317.289062 655.890625 313.183594 C 654.644531 309.078125 653.300781 305.007812 651.855469 300.96875 C 650.410156 296.929688 648.867188 292.929688 647.222656 288.964844 C 645.582031 285 643.84375 281.082031 642.011719 277.203125 C 640.175781 273.324219 638.246094 269.496094 636.226562 265.710938 C 634.203125 261.929688 632.089844 258.195312 629.882812 254.515625 C 627.679688 250.835938 625.382812 247.214844 623 243.648438 C 620.617188 240.082031 618.148438 236.574219 615.59375 233.128906 C 613.039062 229.683594 610.398438 226.300781 607.675781 222.984375 C 604.957031 219.667969 602.15625 216.421875 599.273438 213.242188 C 596.394531 210.066406 593.4375 206.960938 590.402344 203.925781 C 587.371094 200.890625 584.261719 197.933594 581.085938 195.054688 C 577.90625 192.171875 574.660156 189.371094 571.34375 186.652344 C 568.027344 183.929688 564.644531 181.289062 561.199219 178.734375 C 557.753906 176.179688 554.246094 173.710938 550.679688 171.328125 C 547.113281 168.945312 543.492188 166.648438 539.8125 164.445312 C 536.132812 162.238281 532.402344 160.125 528.617188 158.101562 C 524.832031 156.082031 521.003906 154.152344 517.125 152.316406 C 513.246094 150.484375 509.328125 148.746094 505.363281 147.105469 C 501.398438 145.460938 497.398438 143.917969 493.359375 142.472656 C 489.320312 141.027344 485.25 139.683594 481.144531 138.4375 C 477.039062 137.191406 472.90625 136.050781 468.742188 135.007812 C 464.582031 133.964844 460.398438 133.023438 456.191406 132.1875 C 451.984375 131.351562 447.757812 130.617188 443.515625 129.988281 C 439.269531 129.359375 435.015625 128.832031 430.746094 128.414062 C 426.476562 127.992188 422.199219 127.675781 417.914062 127.46875 C 413.628906 127.257812 409.34375 127.152344 405.050781 127.152344 Z M 405.050781 605.8125 C 401.507812 605.8125 397.96875 605.726562 394.425781 605.554688 C 390.886719 605.378906 387.355469 605.117188 383.828125 604.769531 C 380.300781 604.425781 376.785156 603.992188 373.28125 603.46875 C 369.773438 602.949219 366.285156 602.34375 362.808594 601.652344 C 359.332031 600.960938 355.875 600.1875 352.4375 599.324219 C 349 598.464844 345.585938 597.519531 342.195312 596.488281 C 338.804688 595.460938 335.4375 594.351562 332.101562 593.15625 C 328.765625 591.960938 325.460938 590.6875 322.1875 589.332031 C 318.914062 587.976562 315.675781 586.539062 312.46875 585.023438 C 309.265625 583.507812 306.101562 581.917969 302.976562 580.246094 C 299.851562 578.574219 296.769531 576.828125 293.730469 575.007812 C 290.691406 573.183594 287.695312 571.289062 284.75 569.320312 C 281.804688 567.351562 278.90625 565.3125 276.0625 563.199219 C 273.214844 561.089844 270.421875 558.910156 267.683594 556.664062 C 264.941406 554.414062 262.261719 552.101562 259.632812 549.71875 C 257.007812 547.339844 254.441406 544.898438 251.9375 542.390625 C 249.429688 539.886719 246.988281 537.320312 244.609375 534.695312 C 242.226562 532.066406 239.914062 529.386719 237.667969 526.644531 C 235.417969 523.90625 233.238281 521.113281 231.128906 518.269531 C 229.015625 515.421875 226.976562 512.523438 225.007812 509.578125 C 223.039062 506.632812 221.144531 503.636719 219.320312 500.597656 C 217.5 497.558594 215.753906 494.476562 214.082031 491.351562 C 212.414062 488.226562 210.820312 485.0625 209.304688 481.859375 C 207.789062 478.65625 206.351562 475.414062 204.996094 472.140625 C 203.640625 468.867188 202.367188 465.5625 201.171875 462.226562 C 199.976562 458.890625 198.867188 455.523438 197.839844 452.132812 C 196.808594 448.742188 195.863281 445.328125 195.003906 441.890625 C 194.140625 438.453125 193.367188 434.996094 192.675781 431.519531 C 191.984375 428.042969 191.378906 424.554688 190.859375 421.046875 C 190.339844 417.542969 189.90625 414.027344 189.558594 410.5 C 189.210938 406.972656 188.949219 403.441406 188.773438 399.902344 C 188.601562 396.363281 188.515625 392.820312 188.515625 389.277344 C 188.515625 385.730469 188.601562 382.191406 188.773438 378.652344 C 188.949219 375.113281 189.210938 371.578125 189.558594 368.050781 C 189.90625 364.523438 190.339844 361.007812 190.859375 357.503906 C 191.378906 353.996094 191.984375 350.507812 192.675781 347.03125 C 193.367188 343.554688 194.140625 340.097656 195.003906 336.660156 C 195.863281 333.222656 196.808594 329.808594 197.839844 326.417969 C 198.867188 323.027344 199.976562 319.664062 201.171875 316.328125 C 202.367188 312.988281 203.640625 309.683594 204.996094 306.410156 C 206.351562 303.136719 207.789062 299.898438 209.304688 296.695312 C 210.820312 293.492188 212.414062 290.324219 214.082031 287.199219 C 215.753906 284.074219 217.5 280.992188 219.320312 277.953125 C 221.144531 274.914062 223.039062 271.921875 225.007812 268.972656 C 226.976562 266.027344 229.015625 263.132812 231.128906 260.285156 C 233.238281 257.4375 235.417969 254.644531 237.667969 251.90625 C 239.914062 249.167969 242.226562 246.484375 244.609375 243.859375 C 246.988281 241.230469 249.429688 238.667969 251.9375 236.160156 C 254.441406 233.65625 257.007812 231.210938 259.632812 228.832031 C 262.261719 226.453125 264.941406 224.136719 267.683594 221.890625 C 270.421875 219.640625 273.214844 217.460938 276.0625 215.351562 C 278.90625 213.238281 281.804688 211.199219 284.75 209.230469 C 287.695312 207.261719 290.691406 205.367188 293.730469 203.546875 C 296.769531 201.722656 299.851562 199.976562 302.976562 198.304688 C 306.101562 196.636719 309.265625 195.042969 312.46875 193.527344 C 315.675781 192.011719 318.914062 190.578125 322.1875 189.222656 C 325.460938 187.863281 328.765625 186.589844 332.101562 185.394531 C 335.4375 184.203125 338.804688 183.089844 342.195312 182.0625 C 345.585938 181.035156 349 180.089844 352.4375 179.226562 C 355.875 178.367188 359.332031 177.589844 362.808594 176.898438 C 366.285156 176.207031 369.773438 175.601562 373.28125 175.082031 C 376.785156 174.5625 380.300781 174.128906 383.828125 173.78125 C 387.355469 173.433594 390.886719 173.171875 394.425781 173 C 397.96875 172.824219 401.507812 172.738281 405.050781 172.738281 C 408.597656 172.738281 412.136719 172.824219 415.675781 173 C 419.214844 173.171875 422.75 173.433594 426.277344 173.78125 C 429.804688 174.128906 433.320312 174.5625 436.824219 175.082031 C 440.332031 175.601562 443.820312 176.207031 447.296875 176.898438 C 450.773438 177.589844 454.230469 178.367188 457.667969 179.226562 C 461.105469 180.089844 464.519531 181.035156 467.910156 182.0625 C 471.300781 183.089844 474.664062 184.203125 478 185.394531 C 481.339844 186.589844 484.644531 187.863281 487.917969 189.222656 C 491.191406 190.578125 494.429688 192.011719 497.632812 193.527344 C 500.835938 195.042969 504.003906 196.636719 507.128906 198.304688 C 510.253906 199.976562 513.335938 201.722656 516.375 203.546875 C 519.414062 205.367188 522.40625 207.261719 525.355469 209.230469 C 528.300781 211.199219 531.199219 213.238281 534.042969 215.351562 C 536.890625 217.460938 539.683594 219.640625 542.421875 221.890625 C 545.160156 224.136719 547.84375 226.453125 550.46875 228.832031 C 553.097656 231.210938 555.660156 233.65625 558.167969 236.160156 C 560.671875 238.667969 563.117188 241.230469 565.496094 243.859375 C 567.875 246.484375 570.191406 249.167969 572.4375 251.90625 C 574.6875 254.644531 576.867188 257.4375 578.976562 260.285156 C 581.089844 263.132812 583.128906 266.027344 585.097656 268.972656 C 587.066406 271.921875 588.960938 274.914062 590.78125 277.953125 C 592.605469 280.992188 594.351562 284.074219 596.023438 287.199219 C 597.691406 290.324219 599.285156 293.492188 600.800781 296.695312 C 602.316406 299.898438 603.75 303.136719 605.105469 306.410156 C 606.464844 309.683594 607.738281 312.988281 608.933594 316.328125 C 610.125 319.664062 611.238281 323.027344 612.265625 326.417969 C 613.292969 329.808594 614.238281 333.222656 615.101562 336.660156 C 615.960938 340.097656 616.738281 343.554688 617.429688 347.03125 C 618.121094 350.507812 618.726562 353.996094 619.246094 357.503906 C 619.765625 361.007812 620.199219 364.523438 620.546875 368.050781 C 620.894531 371.578125 621.15625 375.113281 621.328125 378.652344 C 621.503906 382.191406 621.589844 385.730469 621.589844 389.277344 C 621.589844 392.820312 621.503906 396.363281 621.328125 399.902344 C 621.15625 403.441406 620.894531 406.972656 620.546875 410.5 C 620.199219 414.027344 619.765625 417.542969 619.246094 421.046875 C 618.726562 424.554688 618.121094 428.042969 617.429688 431.519531 C 616.738281 434.996094 615.960938 438.453125 615.101562 441.890625 C 614.238281 445.328125 613.292969 448.742188 612.265625 452.132812 C 611.238281 455.523438 610.125 458.890625 608.933594 462.226562 C 607.738281 465.5625 606.464844 468.867188 605.105469 472.140625 C 603.75 475.414062 602.316406 478.65625 600.800781 481.859375 C 599.285156 485.0625 597.691406 488.226562 596.023438 491.351562 C 594.351562 494.476562 592.605469 497.558594 590.78125 500.597656 C 588.960938 503.636719 587.066406 506.632812 585.097656 509.578125 C 583.128906 512.523438 581.089844 515.421875 578.976562 518.269531 C 576.867188 521.113281 574.6875 523.90625 572.4375 526.644531 C 570.191406 529.386719 567.875 532.066406 565.496094 534.695312 C 563.117188 537.320312 560.671875 539.886719 558.167969 542.390625 C 555.660156 544.898438 553.097656 547.339844 550.46875 549.71875 C 547.84375 552.101562 545.160156 554.414062 542.421875 556.664062 C 539.683594 558.910156 536.890625 561.089844 534.042969 563.199219 C 531.199219 565.3125 528.300781 567.351562 525.355469 569.320312 C 522.40625 571.289062 519.414062 573.183594 516.375 575.007812 C 513.335938 576.828125 510.253906 578.574219 507.128906 580.246094 C 504.003906 581.917969 500.835938 583.507812 497.632812 585.023438 C 494.429688 586.539062 491.191406 587.976562 487.917969 589.332031 C 484.644531 590.6875 481.339844 591.960938 478 593.15625 C 474.664062 594.351562 471.300781 595.460938 467.910156 596.488281 C 464.519531 597.519531 461.105469 598.464844 457.667969 599.324219 C 454.230469 600.1875 450.773438 600.960938 447.296875 601.652344 C 443.820312 602.34375 440.332031 602.949219 436.824219 603.46875 C 433.320312 603.992188 429.804688 604.425781 426.277344 604.769531 C 422.75 605.117188 419.21875 605.378906 415.675781 605.554688 C 412.136719 605.726562 408.597656 605.8125 405.050781 605.8125 Z M 405.050781 605.8125 " fill-opacity="1" fill-rule="nonzero"/></g><path fill="#000000" d="M 427.847656 374.6875 L 427.847656 303.914062 C 433.367188 305.28125 438.632812 307.304688 443.648438 309.988281 C 448.664062 312.667969 453.273438 315.925781 457.476562 319.757812 C 458.019531 320.269531 458.582031 320.757812 459.171875 321.21875 C 459.761719 321.675781 460.371094 322.105469 461.003906 322.507812 C 461.632812 322.90625 462.285156 323.273438 462.953125 323.609375 C 463.617188 323.945312 464.300781 324.246094 465 324.515625 C 465.695312 324.785156 466.402344 325.019531 467.125 325.21875 C 467.84375 325.417969 468.574219 325.582031 469.308594 325.707031 C 470.046875 325.835938 470.785156 325.925781 471.53125 325.980469 C 472.277344 326.039062 473.023438 326.054688 473.769531 326.035156 C 474.515625 326.019531 475.261719 325.964844 476 325.871094 C 476.742188 325.78125 477.476562 325.652344 478.207031 325.488281 C 478.9375 325.324219 479.65625 325.125 480.363281 324.890625 C 481.074219 324.65625 481.769531 324.386719 482.453125 324.085938 C 483.136719 323.78125 483.804688 323.445312 484.453125 323.078125 C 485.101562 322.710938 485.734375 322.308594 486.34375 321.878906 C 486.953125 321.449219 487.542969 320.992188 488.109375 320.503906 C 488.675781 320.015625 489.214844 319.5 489.730469 318.957031 C 490.246094 318.417969 490.734375 317.851562 491.191406 317.261719 C 491.652344 316.671875 492.082031 316.0625 492.480469 315.433594 C 492.878906 314.800781 493.25 314.152344 493.582031 313.484375 C 493.917969 312.816406 494.222656 312.132812 494.492188 311.4375 C 494.757812 310.738281 494.992188 310.03125 495.191406 309.3125 C 495.390625 308.589844 495.554688 307.863281 495.683594 307.125 C 495.808594 306.390625 495.902344 305.648438 495.957031 304.90625 C 496.011719 304.160156 496.03125 303.414062 496.011719 302.667969 C 495.992188 301.917969 495.9375 301.175781 495.847656 300.433594 C 495.753906 299.691406 495.625 298.957031 495.460938 298.226562 C 495.296875 297.5 495.101562 296.78125 494.863281 296.070312 C 494.628906 295.359375 494.363281 294.664062 494.058594 293.980469 C 493.757812 293.300781 493.421875 292.632812 493.050781 291.984375 C 492.683594 291.332031 492.285156 290.703125 491.855469 290.089844 C 491.421875 289.480469 490.964844 288.890625 490.476562 288.328125 C 489.988281 287.761719 489.472656 287.21875 488.933594 286.707031 C 484.695312 282.832031 480.199219 279.285156 475.445312 276.066406 C 470.691406 272.851562 465.726562 269.996094 460.554688 267.507812 C 455.378906 265.015625 450.054688 262.917969 444.574219 261.207031 C 439.09375 259.496094 433.515625 258.195312 427.847656 257.300781 L 427.847656 228.46875 C 427.847656 227.722656 427.808594 226.976562 427.734375 226.234375 C 427.664062 225.492188 427.554688 224.753906 427.40625 224.019531 C 427.261719 223.289062 427.082031 222.566406 426.863281 221.851562 C 426.648438 221.136719 426.394531 220.433594 426.109375 219.746094 C 425.824219 219.054688 425.507812 218.382812 425.152344 217.722656 C 424.800781 217.066406 424.417969 216.425781 424.003906 215.804688 C 423.589844 215.183594 423.144531 214.585938 422.671875 214.007812 C 422.199219 213.429688 421.699219 212.878906 421.167969 212.351562 C 420.640625 211.824219 420.089844 211.320312 419.511719 210.847656 C 418.933594 210.375 418.335938 209.929688 417.714844 209.515625 C 417.09375 209.101562 416.457031 208.71875 415.796875 208.367188 C 415.136719 208.015625 414.464844 207.695312 413.773438 207.410156 C 413.085938 207.125 412.382812 206.871094 411.667969 206.65625 C 410.953125 206.441406 410.230469 206.257812 409.5 206.113281 C 408.765625 205.96875 408.03125 205.859375 407.285156 205.785156 C 406.542969 205.710938 405.796875 205.675781 405.050781 205.675781 C 404.304688 205.675781 403.5625 205.710938 402.816406 205.785156 C 402.074219 205.859375 401.335938 205.96875 400.605469 206.113281 C 399.875 206.257812 399.148438 206.441406 398.4375 206.65625 C 397.722656 206.871094 397.019531 207.125 396.328125 207.410156 C 395.640625 207.695312 394.964844 208.015625 394.308594 208.367188 C 393.648438 208.71875 393.007812 209.101562 392.390625 209.515625 C 391.769531 209.929688 391.167969 210.375 390.59375 210.847656 C 390.015625 211.320312 389.460938 211.824219 388.933594 212.351562 C 388.40625 212.878906 387.90625 213.429688 387.433594 214.007812 C 386.960938 214.585938 386.515625 215.183594 386.101562 215.804688 C 385.683594 216.425781 385.300781 217.066406 384.949219 217.722656 C 384.597656 218.382812 384.28125 219.054688 383.992188 219.746094 C 383.707031 220.433594 383.457031 221.136719 383.238281 221.851562 C 383.023438 222.566406 382.84375 223.289062 382.695312 224.019531 C 382.550781 224.753906 382.441406 225.492188 382.367188 226.234375 C 382.296875 226.976562 382.257812 227.722656 382.257812 228.46875 L 382.257812 257.984375 C 371.710938 259.941406 361.71875 263.472656 352.285156 268.585938 C 350.957031 269.203125 349.648438 269.859375 348.359375 270.5625 C 347.074219 271.261719 345.808594 272 344.570312 272.777344 C 343.328125 273.558594 342.113281 274.375 340.921875 275.230469 C 339.734375 276.085938 338.570312 276.976562 337.4375 277.90625 C 336.304688 278.832031 335.199219 279.796875 334.125 280.792969 C 333.050781 281.789062 332.011719 282.820312 331.003906 283.882812 C 329.992188 284.945312 329.019531 286.039062 328.078125 287.164062 C 327.136719 288.285156 326.234375 289.4375 325.367188 290.621094 C 324.5 291.800781 323.667969 293.007812 322.875 294.238281 C 322.082031 295.472656 321.332031 296.726562 320.617188 298.007812 C 319.902344 299.289062 319.230469 300.589844 318.597656 301.910156 C 317.964844 303.230469 317.375 304.574219 316.828125 305.929688 C 316.28125 307.289062 315.777344 308.664062 315.3125 310.054688 C 314.851562 311.445312 314.433594 312.851562 314.0625 314.265625 C 313.6875 315.683594 313.359375 317.109375 313.074219 318.546875 C 312.789062 319.984375 312.550781 321.429688 312.355469 322.882812 C 312.164062 324.335938 312.015625 325.792969 311.914062 327.253906 C 311.8125 328.714844 311.753906 330.179688 311.746094 331.644531 C 311.734375 333.109375 311.769531 334.574219 311.851562 336.035156 C 311.933594 337.5 312.058594 338.960938 312.234375 340.414062 C 312.40625 341.867188 312.625 343.316406 312.886719 344.757812 C 313.152344 346.199219 313.460938 347.632812 313.8125 349.054688 C 314.167969 350.476562 314.566406 351.886719 315.007812 353.28125 C 315.449219 354.679688 315.933594 356.0625 316.460938 357.425781 C 316.992188 358.792969 317.5625 360.144531 318.175781 361.472656 C 318.789062 362.804688 319.441406 364.113281 320.136719 365.40625 C 320.832031 366.695312 321.570312 367.960938 322.34375 369.203125 C 323.117188 370.449219 323.929688 371.667969 324.78125 372.859375 C 325.632812 374.050781 326.523438 375.214844 327.445312 376.355469 C 328.371094 377.492188 329.328125 378.597656 330.324219 379.675781 C 331.316406 380.75 332.34375 381.796875 333.402344 382.808594 C 334.460938 383.820312 335.550781 384.800781 336.671875 385.742188 C 343.15625 391.75 350.25 396.921875 357.953125 401.253906 C 365.65625 405.585938 373.757812 408.964844 382.257812 411.386719 L 382.257812 482.386719 C 376.753906 481.039062 371.496094 479.046875 366.480469 476.402344 C 361.46875 473.761719 356.851562 470.550781 352.628906 466.773438 C 352.082031 466.296875 351.511719 465.84375 350.925781 465.421875 C 350.335938 464.996094 349.726562 464.601562 349.101562 464.238281 C 348.472656 463.871094 347.828125 463.535156 347.171875 463.234375 C 346.511719 462.929688 345.839844 462.65625 345.15625 462.417969 C 344.46875 462.175781 343.773438 461.96875 343.070312 461.796875 C 342.367188 461.621094 341.65625 461.484375 340.9375 461.378906 C 340.21875 461.269531 339.496094 461.199219 338.773438 461.164062 C 338.046875 461.125 337.320312 461.125 336.597656 461.15625 C 335.871094 461.1875 335.148438 461.257812 334.429688 461.359375 C 333.714844 461.460938 333 461.59375 332.296875 461.765625 C 331.589844 461.933594 330.894531 462.136719 330.207031 462.371094 C 329.519531 462.609375 328.847656 462.875 328.1875 463.175781 C 327.527344 463.476562 326.878906 463.808594 326.25 464.171875 C 325.621094 464.53125 325.011719 464.921875 324.421875 465.34375 C 323.828125 465.761719 323.257812 466.210938 322.707031 466.6875 C 322.160156 467.160156 321.632812 467.660156 321.132812 468.183594 C 320.632812 468.710938 320.15625 469.257812 319.707031 469.828125 C 319.257812 470.398438 318.839844 470.988281 318.445312 471.597656 C 318.054688 472.210938 317.691406 472.835938 317.359375 473.480469 C 317.027344 474.128906 316.722656 474.785156 316.453125 475.460938 C 316.183594 476.132812 315.949219 476.820312 315.746094 477.515625 C 315.539062 478.210938 315.371094 478.917969 315.234375 479.628906 C 315.097656 480.34375 314.992188 481.058594 314.925781 481.78125 C 314.855469 482.503906 314.824219 483.230469 314.824219 483.957031 C 314.824219 484.679688 314.859375 485.40625 314.929688 486.128906 C 315 486.851562 315.105469 487.566406 315.242188 488.28125 C 315.382812 488.992188 315.554688 489.695312 315.761719 490.394531 C 315.964844 491.089844 316.203125 491.773438 316.476562 492.445312 C 316.746094 493.121094 317.050781 493.777344 317.382812 494.421875 C 317.71875 495.066406 318.082031 495.695312 318.476562 496.304688 C 318.871094 496.914062 319.292969 497.503906 319.742188 498.070312 C 320.191406 498.640625 320.667969 499.1875 321.171875 499.710938 C 325.402344 503.585938 329.898438 507.132812 334.652344 510.34375 C 339.40625 513.558594 344.371094 516.40625 349.542969 518.886719 C 354.71875 521.367188 360.046875 523.453125 365.527344 525.148438 C 371.011719 526.84375 376.585938 528.128906 382.257812 529 L 382.257812 552.707031 C 382.257812 553.453125 382.296875 554.195312 382.367188 554.9375 C 382.441406 555.683594 382.550781 556.417969 382.695312 557.152344 C 382.84375 557.882812 383.023438 558.609375 383.242188 559.320312 C 383.457031 560.035156 383.707031 560.738281 383.992188 561.429688 C 384.28125 562.117188 384.597656 562.792969 384.949219 563.449219 C 385.300781 564.109375 385.683594 564.746094 386.101562 565.367188 C 386.515625 565.988281 386.960938 566.589844 387.433594 567.164062 C 387.90625 567.742188 388.40625 568.292969 388.933594 568.824219 C 389.460938 569.351562 390.015625 569.851562 390.59375 570.324219 C 391.167969 570.796875 391.769531 571.242188 392.390625 571.65625 C 393.007812 572.070312 393.648438 572.457031 394.308594 572.808594 C 394.964844 573.160156 395.640625 573.476562 396.328125 573.765625 C 397.019531 574.050781 397.722656 574.300781 398.4375 574.515625 C 399.148438 574.734375 399.875 574.914062 400.605469 575.0625 C 401.335938 575.207031 402.074219 575.316406 402.816406 575.390625 C 403.5625 575.460938 404.304688 575.5 405.050781 575.5 C 405.796875 575.5 406.542969 575.460938 407.285156 575.390625 C 408.03125 575.316406 408.765625 575.207031 409.5 575.0625 C 410.230469 574.914062 410.953125 574.734375 411.667969 574.515625 C 412.382812 574.300781 413.085938 574.050781 413.773438 573.765625 C 414.464844 573.476562 415.136719 573.160156 415.796875 572.808594 C 416.457031 572.457031 417.09375 572.070312 417.714844 571.65625 C 418.335938 571.242188 418.933594 570.796875 419.511719 570.324219 C 420.089844 569.851562 420.640625 569.351562 421.167969 568.824219 C 421.699219 568.292969 422.199219 567.742188 422.671875 567.164062 C 423.144531 566.589844 423.589844 565.988281 424.003906 565.367188 C 424.417969 564.746094 424.800781 564.109375 425.152344 563.449219 C 425.507812 562.792969 425.824219 562.117188 426.109375 561.429688 C 426.394531 560.738281 426.648438 560.035156 426.863281 559.320312 C 427.082031 558.609375 427.261719 557.882812 427.40625 557.152344 C 427.554688 556.417969 427.664062 555.683594 427.734375 554.9375 C 427.808594 554.195312 427.847656 553.453125 427.847656 552.707031 L 427.847656 528.660156 C 438.675781 526.632812 448.972656 523.0625 458.730469 517.945312 C 460.054688 517.316406 461.359375 516.648438 462.640625 515.9375 C 463.921875 515.230469 465.179688 514.480469 466.414062 513.691406 C 467.648438 512.902344 468.859375 512.074219 470.039062 511.210938 C 471.222656 510.347656 472.378906 509.445312 473.503906 508.507812 C 474.632812 507.570312 475.726562 506.601562 476.792969 505.59375 C 477.859375 504.589844 478.890625 503.550781 479.890625 502.480469 C 480.894531 501.410156 481.859375 500.308594 482.789062 499.179688 C 483.722656 498.046875 484.617188 496.890625 485.476562 495.703125 C 486.335938 494.515625 487.15625 493.300781 487.9375 492.0625 C 488.71875 490.824219 489.464844 489.5625 490.167969 488.277344 C 490.871094 486.992188 491.535156 485.6875 492.15625 484.359375 C 492.777344 483.03125 493.355469 481.6875 493.894531 480.324219 C 494.429688 478.960938 494.925781 477.582031 495.375 476.1875 C 495.828125 474.792969 496.234375 473.386719 496.597656 471.96875 C 496.957031 470.546875 497.277344 469.121094 497.550781 467.679688 C 497.824219 466.238281 498.050781 464.792969 498.234375 463.339844 C 498.414062 461.886719 498.550781 460.425781 498.640625 458.964844 C 498.734375 457.503906 498.777344 456.039062 498.777344 454.574219 C 498.777344 453.109375 498.730469 451.644531 498.636719 450.183594 C 498.542969 448.71875 498.40625 447.261719 498.222656 445.808594 C 498.035156 444.355469 497.808594 442.910156 497.53125 441.46875 C 497.257812 440.03125 496.9375 438.601562 496.574219 437.183594 C 496.207031 435.761719 495.800781 434.355469 495.347656 432.964844 C 494.894531 431.570312 494.398438 430.191406 493.859375 428.828125 C 493.320312 427.46875 492.738281 426.125 492.113281 424.796875 C 491.492188 423.472656 490.828125 422.167969 490.121094 420.882812 C 489.417969 419.597656 488.671875 418.335938 487.886719 417.097656 C 487.101562 415.863281 486.28125 414.648438 485.421875 413.464844 C 484.558594 412.277344 483.664062 411.121094 482.730469 409.992188 C 481.796875 408.859375 480.828125 407.761719 479.828125 406.691406 C 478.824219 405.625 477.792969 404.585938 476.726562 403.582031 C 475.65625 402.578125 474.558594 401.609375 473.433594 400.671875 C 466.949219 394.628906 459.855469 389.410156 452.15625 385.019531 C 444.453125 380.632812 436.351562 377.1875 427.847656 374.6875 Z M 368.242188 352.691406 C 366.507812 351.238281 364.957031 349.613281 363.59375 347.808594 C 362.226562 346.007812 361.082031 344.074219 360.152344 342.011719 C 359.226562 339.949219 358.539062 337.808594 358.097656 335.589844 C 357.652344 333.375 357.464844 331.132812 357.527344 328.875 C 358.050781 326.667969 358.816406 324.550781 359.820312 322.519531 C 360.824219 320.488281 362.039062 318.597656 363.46875 316.839844 C 364.902344 315.082031 366.507812 313.507812 368.296875 312.117188 C 370.082031 310.722656 372 309.546875 374.054688 308.585938 C 376.683594 307.191406 379.417969 306.050781 382.257812 305.167969 L 382.257812 362.152344 C 376.972656 359.707031 372.148438 356.554688 367.785156 352.691406 Z M 453.03125 457.65625 C 452.519531 459.859375 451.765625 461.972656 450.765625 464 C 449.765625 466.027344 448.550781 467.917969 447.117188 469.667969 C 445.6875 471.414062 444.074219 472.980469 442.28125 474.355469 C 440.488281 475.734375 438.566406 476.894531 436.507812 477.828125 C 433.597656 479.425781 430.558594 480.714844 427.390625 481.703125 L 427.390625 423.464844 C 432.863281 426.070312 437.839844 429.410156 442.320312 433.496094 C 444.070312 434.972656 445.632812 436.625 447.007812 438.457031 C 448.378906 440.285156 449.53125 442.25 450.460938 444.34375 C 451.386719 446.433594 452.070312 448.605469 452.503906 450.851562 C 452.9375 453.101562 453.113281 455.367188 453.03125 457.65625 Z M 453.03125 457.65625 " fill-opacity="1" fill-rule="nonzero"/></svg>