<svg xmlns="http://www.w3.org/2000/svg" xmlns:xlink="http://www.w3.org/1999/xlink" width="1080" zoomAndPan="magnify" viewBox="0 0 810 809.999993" height="1080" preserveAspectRatio="xMidYMid meet" version="1.0"><defs><clipPath id="b629e5bcbb"><path d="M 125.972656 138.925781 L 655.472656 138.925781 L 655.472656 710.425781 L 125.972656 710.425781 Z M 125.972656 138.925781 " clip-rule="nonzero"/></clipPath></defs><rect x="-81" width="972" fill="#ffffff" y="-80.999999" height="971.999992" fill-opacity="1"/><rect x="-81" width="972" fill="#ffffff" y="-80.999999" height="971.999992" fill-opacity="1"/><g clip-path="url(#b629e5bcbb)"><path fill="#000000" d="M 269.910156 300.257812 C 274.515625 302.183594 279.339844 303.679688 284.320312 304.6875 C 289.226562 305.679688 294.386719 306.199219 299.753906 306.199219 C 321.109375 306.199219 340.445312 297.539062 354.4375 283.535156 C 368.433594 269.53125 377.089844 250.183594 377.089844 228.816406 C 377.089844 207.449219 368.429688 188.101562 354.4375 174.097656 C 340.445312 160.097656 321.109375 151.433594 299.753906 151.433594 C 278.398438 151.433594 259.0625 160.09375 245.070312 174.097656 C 231.074219 188.101562 222.417969 207.445312 222.417969 228.816406 C 222.417969 239.3125 224.484375 249.289062 228.230469 258.359375 C 232.128906 267.800781 237.851562 276.3125 244.960938 283.453125 C 245.960938 284.460938 246.660156 285.65625 247.027344 286.945312 C 247.402344 288.269531 247.4375 289.660156 247.109375 291.03125 L 242.835938 308.992188 L 263.246094 300.152344 L 263.253906 300.148438 L 263.246094 300.128906 C 264.273438 299.6875 265.339844 299.457031 266.445312 299.457031 C 266.8125 299.457031 267.175781 299.488281 267.53125 299.550781 C 268.246094 299.644531 268.941406 299.835938 269.617188 300.121094 Z M 255.253906 607.167969 L 199.472656 607.167969 C 186.082031 607.167969 173.933594 601.714844 165.136719 592.910156 C 156.339844 584.109375 150.886719 571.953125 150.886719 558.554688 L 150.886719 446.4375 C 150.886719 444.714844 150.1875 443.15625 149.066406 442.03125 C 147.941406 440.90625 146.382812 440.207031 144.660156 440.207031 C 142.941406 440.207031 141.382812 440.90625 140.257812 442.03125 C 139.132812 443.15625 138.4375 444.714844 138.4375 446.4375 L 138.4375 558.554688 C 138.4375 575.390625 145.285156 590.660156 156.335938 601.71875 C 167.386719 612.777344 182.648438 619.628906 199.472656 619.628906 L 255.253906 619.628906 L 255.621094 619.632812 L 255.988281 619.597656 C 257.53125 619.421875 258.910156 618.664062 259.902344 617.550781 C 260.882812 616.453125 261.480469 614.996094 261.480469 613.398438 C 261.480469 611.679688 260.78125 610.121094 259.65625 608.996094 C 258.53125 607.867188 256.972656 607.167969 255.253906 607.167969 Z M 205.089844 594.714844 L 255.253906 594.714844 C 260.410156 594.714844 265.082031 596.808594 268.457031 600.1875 C 271.835938 603.566406 273.929688 608.242188 273.929688 613.398438 C 273.929688 618.164062 272.136719 622.519531 269.191406 625.824219 C 266.21875 629.160156 262.046875 631.425781 257.347656 631.957031 C 257.066406 631.988281 256.714844 632.019531 256.296875 632.039062 C 255.78125 632.070312 255.417969 632.085938 255.253906 632.085938 L 228.410156 632.085938 L 228.410156 678.851562 L 256.078125 678.851562 C 259.515625 678.851562 262.304688 681.644531 262.304688 685.082031 L 262.304688 702.867188 C 262.304688 706.304688 259.515625 709.09375 256.078125 709.09375 L 169.25 709.09375 C 165.8125 709.09375 163.023438 706.304688 163.023438 702.867188 L 163.023438 685.082031 C 163.023438 681.644531 165.8125 678.851562 169.25 678.851562 L 196.917969 678.851562 L 196.917969 632.039062 C 177.667969 631.378906 160.277344 623.277344 147.535156 610.527344 C 134.230469 597.214844 125.988281 578.828125 125.988281 558.554688 L 125.988281 446.4375 C 125.988281 441.277344 128.078125 436.601562 131.457031 433.222656 C 134.835938 429.84375 139.507812 427.75 144.660156 427.75 C 149.816406 427.75 154.488281 429.84375 157.867188 433.222656 C 161.246094 436.601562 163.335938 441.277344 163.335938 446.4375 L 163.335938 558.554688 C 163.335938 568.515625 167.394531 577.554688 173.9375 584.105469 C 180.484375 590.652344 189.519531 594.714844 199.472656 594.714844 Z M 202.898438 320.398438 C 213.363281 320.398438 222.847656 324.652344 229.714844 331.523438 L 229.742188 331.546875 C 236.609375 338.421875 240.855469 347.910156 240.855469 358.378906 C 240.855469 368.867188 236.609375 378.363281 229.742188 385.234375 C 229.621094 385.351562 229.5 385.464844 229.375 385.570312 C 222.535156 392.246094 213.191406 396.359375 202.898438 396.359375 C 192.421875 396.359375 182.929688 392.109375 176.0625 385.234375 C 169.191406 378.363281 164.945312 368.867188 164.945312 358.378906 C 164.945312 347.910156 169.195312 338.421875 176.0625 331.546875 L 176.074219 331.535156 L 176.0625 331.523438 C 182.929688 324.648438 192.421875 320.398438 202.898438 320.398438 Z M 220.949219 340.316406 C 216.335938 335.707031 209.953125 332.855469 202.898438 332.855469 C 195.855469 332.855469 189.476562 335.710938 184.863281 340.328125 L 184.851562 340.316406 C 180.246094 344.933594 177.394531 351.320312 177.394531 358.378906 C 177.394531 365.425781 180.25 371.808594 184.863281 376.425781 C 189.476562 381.042969 195.855469 383.902344 202.898438 383.902344 C 209.808594 383.902344 216.074219 381.167969 220.664062 376.722656 C 220.75 376.621094 220.84375 376.523438 220.9375 376.425781 C 225.550781 371.808594 228.410156 365.425781 228.410156 358.378906 C 228.410156 351.320312 225.558594 344.933594 220.949219 340.316406 Z M 209.414062 424.835938 L 209.425781 424.832031 C 209.8125 425.671875 210.25 426.410156 210.753906 427.074219 C 211.15625 427.601562 211.617188 428.09375 212.144531 428.574219 C 212.28125 428.710938 212.417969 428.839844 212.566406 428.964844 L 251.066406 461.144531 C 252.300781 462.175781 253.691406 462.929688 255.21875 463.394531 C 256.734375 463.855469 258.304688 464 259.902344 463.832031 C 261.511719 463.660156 263.015625 463.183594 264.402344 462.417969 C 265.769531 461.65625 266.964844 460.632812 267.96875 459.34375 L 284.457031 438.234375 C 285.777344 436.542969 287.667969 435.515625 289.652344 435.242188 L 289.652344 435.238281 C 291.574219 434.980469 293.589844 435.441406 295.246094 436.695312 C 296.914062 437.960938 297.914062 439.800781 298.183594 441.746094 L 298.1875 441.746094 C 298.449219 443.695312 297.976562 445.742188 296.710938 447.417969 L 277.101562 473.324219 L 277.109375 473.328125 L 267.019531 485.761719 C 265.308594 487.875 262.875 489.097656 260.34375 489.363281 C 257.800781 489.625 255.160156 488.933594 253.054688 487.21875 L 229.585938 468.152344 C 227.789062 466.695312 225.71875 465.816406 223.574219 465.554688 C 221.441406 465.292969 219.226562 465.640625 217.128906 466.621094 C 215.050781 467.589844 213.371094 469.066406 212.195312 470.886719 C 211.011719 472.710938 210.347656 474.863281 210.316406 477.171875 C 210.230469 482.84375 210.152344 488.539062 210.09375 494.296875 C 210.023438 501.554688 209.976562 507.570312 209.976562 511.445312 L 209.976562 539.03125 C 209.976562 542.296875 211.308594 545.257812 213.449219 547.402344 C 215.589844 549.542969 218.554688 550.878906 221.816406 550.878906 L 303.125 550.878906 L 352.820312 678.644531 L 352.941406 679.003906 L 353.023438 679.210938 L 353.027344 679.207031 C 354.339844 682.71875 354.085938 686.464844 352.628906 689.667969 C 351.175781 692.851562 348.558594 695.511719 345.128906 696.914062 L 344.96875 696.96875 L 344.753906 697.050781 C 341.160156 698.402344 337.316406 698.15625 334.027344 696.667969 C 330.757812 695.183594 328.046875 692.460938 326.691406 688.859375 L 285.996094 580.640625 C 285.125 578.320312 283.601562 576.40625 281.664062 575.0625 C 279.714844 573.714844 277.394531 572.960938 274.929688 572.960938 L 197.527344 572.960938 C 194.09375 572.960938 190.980469 571.566406 188.738281 569.320312 L 188.714844 569.292969 C 186.46875 567.050781 185.078125 563.9375 185.078125 560.5 L 185.078125 429.695312 C 185.078125 426.277344 186.480469 423.164062 188.738281 420.902344 L 188.726562 420.890625 L 188.738281 420.878906 C 190.980469 418.632812 194.09375 417.238281 197.527344 417.238281 C 199.976562 417.238281 202.300781 417.933594 204.28125 419.128906 L 204.546875 419.308594 C 206.664062 420.664062 208.382812 422.589844 209.414062 424.835938 Z M 211.257812 408.847656 C 215.300781 411.433594 218.597656 415.136719 220.636719 419.503906 L 258.574219 451.21875 L 274.679688 430.59375 C 278.066406 426.257812 282.886719 423.632812 287.949219 422.933594 L 287.972656 422.933594 C 293.03125 422.234375 298.34375 423.445312 302.734375 426.769531 C 307.140625 430.109375 309.78125 434.945312 310.484375 440.042969 L 310.484375 440.066406 C 311.183594 445.15625 309.957031 450.515625 306.628906 454.910156 L 287.023438 480.816406 L 287.011719 480.808594 L 286.953125 480.886719 L 286.757812 481.136719 L 276.648438 493.597656 C 275.15625 495.441406 273.421875 496.980469 271.527344 498.214844 L 509.945312 498.214844 C 508.054688 496.980469 506.320312 495.441406 504.824219 493.597656 L 494.714844 481.136719 L 494.523438 480.886719 L 494.460938 480.808594 L 494.453125 480.816406 L 474.84375 454.910156 C 471.515625 450.515625 470.289062 445.15625 470.988281 440.066406 L 470.992188 440.042969 L 470.988281 440.042969 C 471.695312 434.945312 474.335938 430.109375 478.742188 426.769531 C 483.128906 423.445312 488.441406 422.234375 493.5 422.933594 L 493.527344 422.933594 C 498.585938 423.632812 503.40625 426.257812 506.796875 430.59375 L 522.902344 451.21875 L 560.835938 419.503906 C 562.875 415.136719 566.175781 411.433594 570.21875 408.847656 C 570.355469 408.757812 570.496094 408.675781 570.636719 408.601562 C 574.558594 406.1875 579.148438 404.78125 583.949219 404.78125 C 590.800781 404.78125 597.027344 407.585938 601.539062 412.09375 C 606.046875 416.605469 608.847656 422.839844 608.847656 429.695312 L 608.847656 560.5 C 608.847656 567.339844 606.042969 573.566406 601.523438 578.089844 L 601.539062 578.101562 C 597.027344 582.613281 590.800781 585.417969 583.949219 585.417969 L 506.949219 585.417969 L 466.402344 693.238281 C 463.839844 700.054688 458.722656 705.207031 452.550781 708.003906 C 446.394531 710.796875 439.15625 711.246094 432.34375 708.679688 L 432.128906 708.601562 L 431.789062 708.457031 C 425.261719 705.828125 420.292969 700.820312 417.566406 694.828125 C 414.777344 688.703125 414.296875 681.542969 416.828125 674.808594 L 416.839844 674.785156 L 416.828125 674.78125 L 416.910156 674.574219 C 416.96875 674.421875 417.03125 674.269531 417.101562 674.125 L 466.933594 545.992188 C 467.835938 543.679688 469.355469 541.792969 471.273438 540.480469 C 473.203125 539.15625 475.507812 538.421875 477.953125 538.421875 L 559.046875 538.421875 L 559.046875 511.445312 C 559.046875 503.917969 559.023438 498.523438 558.980469 494.390625 C 558.929688 489.15625 558.859375 483.863281 558.777344 478.550781 L 536.25 496.855469 C 535.632812 497.355469 534.996094 497.816406 534.347656 498.242188 C 538.367188 498.46875 542.03125 500.140625 544.824219 502.746094 C 544.972656 502.871094 545.117188 503 545.257812 503.140625 C 548.292969 506.179688 550.179688 510.378906 550.179688 515 C 550.179688 519.625 548.292969 523.824219 545.257812 526.863281 L 545.242188 526.847656 C 542.195312 529.898438 538 531.789062 533.40625 531.789062 L 406.300781 531.789062 L 406.300781 693.523438 C 406.300781 697.8125 404.550781 701.707031 401.734375 704.527344 C 398.917969 707.34375 395.023438 709.09375 390.738281 709.09375 C 386.453125 709.09375 382.558594 707.34375 379.742188 704.527344 C 376.925781 701.707031 375.175781 697.808594 375.175781 693.523438 L 375.175781 531.789062 L 248.070312 531.789062 C 243.683594 531.789062 239.660156 530.066406 236.652344 527.257812 C 236.503906 527.132812 236.359375 527.003906 236.21875 526.863281 C 233.179688 523.824219 231.292969 519.625 231.292969 515 C 231.292969 510.378906 233.179688 506.179688 236.21875 503.140625 L 236.230469 503.152344 C 239.070312 500.3125 242.902344 498.480469 247.128906 498.242188 C 246.476562 497.816406 245.84375 497.355469 245.226562 496.855469 L 222.695312 478.550781 C 222.617188 483.863281 222.542969 489.15625 222.492188 494.390625 C 222.453125 498.523438 222.425781 503.917969 222.425781 511.445312 L 222.425781 538.421875 L 303.519531 538.421875 C 305.96875 538.421875 308.269531 539.15625 310.203125 540.480469 C 312.121094 541.792969 313.640625 543.679688 314.539062 545.992188 L 364.375 674.125 C 364.441406 674.269531 364.507812 674.421875 364.566406 674.574219 L 364.644531 674.78125 L 364.636719 674.785156 L 364.644531 674.808594 C 367.175781 681.539062 366.695312 688.703125 363.910156 694.828125 C 361.179688 700.820312 356.214844 705.828125 349.6875 708.457031 L 349.34375 708.601562 L 349.132812 708.679688 C 342.316406 711.246094 335.082031 710.796875 328.921875 708.003906 C 322.753906 705.207031 317.636719 700.054688 315.070312 693.238281 L 274.523438 585.417969 L 197.527344 585.417969 C 190.714844 585.417969 184.507812 582.625 179.992188 578.128906 L 179.960938 578.101562 L 179.9375 578.078125 C 175.425781 573.554688 172.628906 567.332031 172.628906 560.5 L 172.628906 429.695312 C 172.628906 422.839844 175.429688 416.605469 179.9375 412.09375 L 179.949219 412.109375 C 184.46875 407.589844 190.695312 404.78125 197.527344 404.78125 C 202.328125 404.78125 206.914062 406.1875 210.839844 408.601562 C 210.980469 408.675781 211.121094 408.757812 211.257812 408.847656 Z M 203.144531 691.308594 L 175.472656 691.308594 L 175.472656 696.636719 L 249.855469 696.636719 L 249.855469 691.308594 L 222.183594 691.308594 C 218.746094 691.308594 215.960938 688.519531 215.960938 685.082031 L 215.960938 634.03125 L 209.367188 634.03125 L 209.367188 685.082031 C 209.367188 688.519531 206.578125 691.308594 203.144531 691.308594 Z M 578.574219 332.855469 C 571.53125 332.855469 565.152344 335.710938 560.535156 340.328125 C 560.441406 340.425781 560.34375 340.515625 560.242188 340.605469 C 555.800781 345.199219 553.066406 351.464844 553.066406 358.378906 C 553.066406 365.425781 555.921875 371.808594 560.535156 376.425781 C 565.152344 381.042969 571.53125 383.902344 578.574219 383.902344 C 585.628906 383.902344 592.007812 381.050781 596.625 376.4375 L 596.613281 376.425781 C 601.226562 371.808594 604.082031 365.425781 604.082031 358.378906 C 604.082031 351.320312 601.230469 344.933594 596.625 340.316406 C 592.007812 335.707031 585.628906 332.855469 578.574219 332.855469 Z M 551.734375 331.523438 C 558.601562 324.648438 568.09375 320.398438 578.574219 320.398438 C 589.035156 320.398438 598.519531 324.652344 605.390625 331.523438 L 605.414062 331.546875 C 612.28125 338.421875 616.53125 347.910156 616.53125 358.378906 C 616.53125 368.867188 612.28125 378.363281 605.414062 385.234375 L 605.398438 385.222656 L 605.390625 385.234375 C 598.519531 392.105469 589.035156 396.359375 578.574219 396.359375 C 568.09375 396.359375 558.601562 392.109375 551.734375 385.234375 C 544.867188 378.363281 540.617188 368.867188 540.617188 358.378906 C 540.617188 348.082031 544.730469 338.730469 551.398438 331.886719 C 551.507812 331.761719 551.617188 331.640625 551.734375 331.523438 Z M 441.261719 200.785156 C 437.824219 200.785156 435.035156 197.996094 435.035156 194.554688 C 435.035156 191.117188 437.824219 188.328125 441.261719 188.328125 L 522.183594 188.328125 C 525.621094 188.328125 528.410156 191.117188 528.410156 194.554688 C 528.410156 197.996094 525.621094 200.785156 522.183594 200.785156 Z M 441.261719 269.304688 C 437.824219 269.304688 435.035156 266.515625 435.035156 263.078125 C 435.035156 259.640625 437.824219 256.847656 441.261719 256.847656 L 522.183594 256.847656 C 525.621094 256.847656 528.410156 259.640625 528.410156 263.078125 C 528.410156 266.515625 525.621094 269.304688 522.183594 269.304688 Z M 503.511719 235.042969 C 500.074219 235.042969 497.285156 232.253906 497.285156 228.816406 C 497.285156 225.378906 500.074219 222.585938 503.511719 222.585938 L 522.183594 222.585938 C 525.621094 222.585938 528.410156 225.378906 528.410156 228.816406 C 528.410156 232.253906 525.621094 235.042969 522.183594 235.042969 Z M 441.261719 235.042969 C 437.824219 235.042969 435.035156 232.253906 435.035156 228.816406 C 435.035156 225.378906 437.824219 222.585938 441.261719 222.585938 L 484.835938 222.585938 C 488.269531 222.585938 491.058594 225.378906 491.058594 228.816406 C 491.058594 232.253906 488.269531 235.042969 484.835938 235.042969 Z M 256.988281 212.433594 C 261.488281 212.433594 265.578125 214.273438 268.550781 217.246094 L 268.5625 217.230469 C 271.527344 220.195312 273.359375 224.292969 273.359375 228.816406 C 273.359375 233.320312 271.519531 237.410156 268.550781 240.386719 L 268.5625 240.398438 C 265.601562 243.363281 261.507812 245.195312 256.988281 245.195312 C 252.46875 245.195312 248.375 243.363281 245.410156 240.398438 L 245.425781 240.386719 C 242.453125 237.410156 240.617188 233.320312 240.617188 228.816406 C 240.617188 224.292969 242.449219 220.195312 245.410156 217.230469 C 248.375 214.265625 252.46875 212.433594 256.988281 212.433594 Z M 259.761719 226.015625 L 259.761719 226.039062 C 260.46875 226.75 260.910156 227.730469 260.910156 228.816406 C 260.910156 229.917969 260.480469 230.898438 259.785156 231.589844 L 259.761719 231.589844 C 259.054688 232.300781 258.070312 232.742188 256.988281 232.742188 C 255.90625 232.742188 254.921875 232.300781 254.214844 231.589844 L 254.1875 231.589844 C 253.496094 230.898438 253.066406 229.917969 253.066406 228.816406 C 253.066406 227.730469 253.503906 226.75 254.214844 226.039062 C 254.921875 225.332031 255.90625 224.890625 256.988281 224.890625 C 258.089844 224.890625 259.070312 225.320312 259.761719 226.015625 Z M 342.519531 212.433594 C 347.019531 212.433594 351.109375 214.273438 354.082031 217.246094 L 354.09375 217.230469 C 357.058594 220.195312 358.890625 224.292969 358.890625 228.816406 C 358.890625 233.320312 357.050781 237.410156 354.082031 240.386719 L 354.09375 240.398438 C 351.132812 243.363281 347.039062 245.195312 342.519531 245.195312 C 338 245.195312 333.90625 243.363281 330.941406 240.398438 L 330.957031 240.386719 C 327.984375 237.410156 326.148438 233.320312 326.148438 228.816406 C 326.148438 224.292969 327.980469 220.195312 330.941406 217.230469 C 333.90625 214.265625 338 212.433594 342.519531 212.433594 Z M 345.292969 226.015625 L 345.292969 226.039062 C 346 226.75 346.441406 227.730469 346.441406 228.816406 C 346.441406 229.917969 346.011719 230.898438 345.316406 231.589844 L 345.292969 231.589844 C 344.585938 232.300781 343.601562 232.742188 342.519531 232.742188 C 341.4375 232.742188 340.453125 232.300781 339.746094 231.589844 L 339.71875 231.589844 C 339.027344 230.898438 338.597656 229.917969 338.597656 228.816406 C 338.597656 227.730469 339.035156 226.75 339.746094 226.039062 C 340.453125 225.332031 341.4375 224.890625 342.519531 224.890625 C 343.621094 224.890625 344.601562 225.320312 345.292969 226.015625 Z M 299.753906 212.433594 C 304.253906 212.433594 308.34375 214.273438 311.316406 217.246094 L 311.328125 217.230469 C 314.292969 220.195312 316.125 224.292969 316.125 228.816406 C 316.125 233.320312 314.285156 237.410156 311.316406 240.386719 L 311.328125 240.398438 C 308.367188 243.363281 304.273438 245.195312 299.753906 245.195312 C 295.234375 245.195312 291.140625 243.363281 288.175781 240.398438 L 288.191406 240.386719 C 285.21875 237.410156 283.382812 233.320312 283.382812 228.816406 C 283.382812 224.292969 285.214844 220.195312 288.175781 217.230469 C 291.140625 214.265625 295.234375 212.433594 299.753906 212.433594 Z M 302.527344 226.015625 L 302.527344 226.039062 C 303.234375 226.75 303.675781 227.730469 303.675781 228.816406 C 303.675781 229.917969 303.246094 230.898438 302.550781 231.589844 L 302.527344 231.589844 C 301.820312 232.300781 300.835938 232.742188 299.753906 232.742188 C 298.671875 232.742188 297.6875 232.300781 296.980469 231.589844 L 296.953125 231.589844 C 296.261719 230.898438 295.832031 229.917969 295.832031 228.816406 C 295.832031 227.730469 296.269531 226.75 296.980469 226.039062 C 297.6875 225.332031 298.671875 224.890625 299.753906 224.890625 C 300.855469 224.890625 301.835938 225.320312 302.527344 226.015625 Z M 526.222656 594.714844 C 521.066406 594.714844 516.394531 596.808594 513.015625 600.1875 C 509.640625 603.566406 507.546875 608.242188 507.546875 613.398438 C 507.546875 618.164062 509.335938 622.519531 512.28125 625.824219 C 515.257812 629.160156 519.429688 631.425781 524.125 631.957031 C 524.410156 631.988281 524.757812 632.019531 525.175781 632.039062 C 525.691406 632.070312 526.054688 632.085938 526.222656 632.085938 L 553.066406 632.085938 L 553.066406 678.851562 L 525.394531 678.851562 C 521.957031 678.851562 519.171875 681.644531 519.171875 685.082031 L 519.171875 702.867188 C 519.171875 706.304688 521.957031 709.09375 525.394531 709.09375 L 612.226562 709.09375 C 615.664062 709.09375 618.449219 706.304688 618.449219 702.867188 L 618.449219 685.082031 C 618.449219 681.644531 615.664062 678.851562 612.226562 678.851562 L 584.554688 678.851562 L 584.554688 632.039062 C 603.800781 631.378906 621.199219 623.277344 633.941406 610.527344 C 647.246094 597.214844 655.488281 578.828125 655.488281 558.554688 L 655.488281 446.4375 C 655.488281 441.277344 653.394531 436.601562 650.015625 433.222656 C 646.640625 429.84375 641.96875 427.75 636.8125 427.75 C 631.65625 427.75 626.984375 429.84375 623.609375 433.222656 C 620.230469 436.601562 618.136719 441.277344 618.136719 446.4375 L 618.136719 558.554688 C 618.136719 568.515625 614.082031 577.554688 607.535156 584.105469 C 600.992188 590.652344 591.953125 594.714844 582.003906 594.714844 Z M 576.386719 607.167969 L 526.222656 607.167969 C 524.503906 607.167969 522.945312 607.867188 521.820312 608.996094 C 520.695312 610.121094 519.996094 611.679688 519.996094 613.398438 C 519.996094 614.996094 520.589844 616.453125 521.570312 617.550781 C 522.5625 618.664062 523.945312 619.421875 525.488281 619.597656 L 525.855469 619.632812 L 526.222656 619.628906 L 582.003906 619.628906 C 598.824219 619.628906 614.085938 612.777344 625.136719 601.71875 C 636.191406 590.660156 643.039062 575.390625 643.039062 558.554688 L 643.039062 446.4375 C 643.039062 444.714844 642.339844 443.15625 641.214844 442.03125 C 640.089844 440.90625 638.53125 440.207031 636.8125 440.207031 C 635.09375 440.207031 633.535156 440.90625 632.410156 442.03125 C 631.285156 443.15625 630.585938 444.714844 630.585938 446.4375 L 630.585938 558.554688 C 630.585938 571.953125 625.132812 584.109375 616.335938 592.910156 C 607.539062 601.714844 595.390625 607.167969 582.003906 607.167969 Z M 576.929688 419.308594 C 574.808594 420.664062 573.09375 422.589844 572.058594 424.835938 L 572.050781 424.832031 C 571.660156 425.671875 571.226562 426.410156 570.71875 427.074219 C 570.175781 427.78125 569.578125 428.398438 568.90625 428.964844 L 530.40625 461.144531 C 529.171875 462.175781 527.785156 462.929688 526.257812 463.394531 C 524.742188 463.855469 523.171875 464 521.570312 463.832031 C 519.964844 463.660156 518.457031 463.183594 517.070312 462.417969 C 515.703125 461.65625 514.507812 460.628906 513.507812 459.34375 L 497.019531 438.234375 C 495.699219 436.542969 493.808594 435.515625 491.824219 435.242188 L 491.824219 435.238281 C 489.902344 434.980469 487.886719 435.441406 486.230469 436.695312 C 484.5625 437.957031 483.558594 439.800781 483.289062 441.746094 C 483.027344 443.695312 483.496094 445.742188 484.765625 447.417969 L 504.371094 473.324219 L 504.363281 473.328125 L 514.453125 485.761719 C 516.167969 487.875 518.601562 489.097656 521.132812 489.363281 C 523.675781 489.625 526.3125 488.933594 528.417969 487.21875 L 551.890625 468.152344 C 553.683594 466.699219 555.753906 465.816406 557.902344 465.554688 C 560.035156 465.292969 562.246094 465.640625 564.347656 466.621094 C 566.421875 467.589844 568.101562 469.066406 569.28125 470.886719 C 570.460938 472.710938 571.125 474.863281 571.160156 477.171875 C 571.246094 482.84375 571.324219 488.539062 571.382812 494.296875 C 571.453125 501.554688 571.496094 507.570312 571.496094 511.445312 L 571.496094 539.03125 C 571.496094 542.296875 570.164062 545.257812 568.023438 547.402344 C 565.882812 549.542969 562.917969 550.878906 559.65625 550.878906 L 478.347656 550.878906 L 428.65625 678.644531 L 428.53125 679.003906 L 428.453125 679.210938 L 428.445312 679.207031 C 427.132812 682.71875 427.386719 686.464844 428.847656 689.667969 C 430.296875 692.851562 432.914062 695.511719 436.347656 696.914062 L 436.507812 696.96875 L 436.71875 697.050781 C 440.316406 698.402344 444.160156 698.15625 447.445312 696.667969 C 450.71875 695.183594 453.425781 692.460938 454.78125 688.859375 L 495.476562 580.640625 C 496.351562 578.320312 497.871094 576.40625 499.808594 575.0625 C 501.757812 573.714844 504.082031 572.960938 506.542969 572.960938 L 583.949219 572.960938 C 587.363281 572.960938 590.476562 571.554688 592.734375 569.292969 L 592.75 569.308594 L 592.761719 569.292969 C 595.003906 567.050781 596.398438 563.9375 596.398438 560.5 L 596.398438 429.695312 C 596.398438 426.277344 594.992188 423.164062 592.734375 420.902344 C 590.476562 418.644531 587.363281 417.238281 583.949219 417.238281 C 581.496094 417.238281 579.175781 417.933594 577.195312 419.128906 Z M 606 691.308594 L 578.332031 691.308594 C 574.894531 691.308594 572.109375 688.519531 572.109375 685.082031 L 572.109375 634.03125 L 565.515625 634.03125 L 565.515625 685.082031 C 565.515625 688.519531 562.726562 691.308594 559.289062 691.308594 L 531.621094 691.308594 L 531.621094 696.636719 L 606 696.636719 Z M 387.625 525.558594 C 387.625 522.121094 384.835938 519.332031 381.402344 519.332031 L 248.070312 519.332031 C 246.976562 519.332031 245.980469 518.929688 245.230469 518.273438 L 245.019531 518.054688 C 244.234375 517.269531 243.742188 516.183594 243.742188 515 C 243.742188 513.820312 244.234375 512.734375 245.019531 511.949219 L 245.007812 511.933594 L 245.019531 511.921875 C 245.789062 511.152344 246.871094 510.671875 248.070312 510.671875 L 533.40625 510.671875 C 534.5 510.671875 535.496094 511.074219 536.246094 511.730469 L 536.453125 511.949219 C 537.242188 512.734375 537.730469 513.820312 537.730469 515 C 537.730469 516.183594 537.242188 517.269531 536.453125 518.054688 L 536.46875 518.066406 L 536.453125 518.078125 C 535.683594 518.851562 534.601562 519.332031 533.40625 519.332031 L 400.074219 519.332031 C 396.640625 519.332031 393.851562 522.121094 393.851562 525.558594 L 393.851562 693.523438 C 393.851562 694.375 393.5 695.152344 392.933594 695.71875 C 392.367188 696.285156 391.585938 696.636719 390.738281 696.636719 C 389.890625 696.636719 389.109375 696.285156 388.542969 695.71875 C 387.976562 695.152344 387.625 694.371094 387.625 693.523438 Z M 514.988281 312.261719 L 541.660156 323.8125 C 543.09375 324.4375 544.59375 324.632812 546.035156 324.417969 L 546.035156 324.414062 C 547.5 324.195312 548.886719 323.585938 550.058594 322.605469 L 550.046875 322.589844 L 550.058594 322.578125 C 550.976562 321.804688 551.691406 320.871094 552.183594 319.824219 C 552.332031 319.535156 552.460938 319.230469 552.5625 318.90625 C 552.96875 317.667969 553.070312 316.339844 552.84375 315.023438 C 552.816406 314.855469 552.785156 314.6875 552.746094 314.519531 L 547.019531 290.453125 C 554.464844 282.558594 560.503906 273.296875 564.722656 263.082031 C 569.09375 252.492188 571.507812 240.914062 571.507812 228.816406 C 571.507812 204.007812 561.457031 181.546875 545.210938 165.289062 C 528.960938 149.03125 506.515625 138.976562 481.722656 138.976562 C 456.929688 138.976562 434.480469 149.035156 418.234375 165.289062 C 401.988281 181.546875 391.9375 204.011719 391.9375 228.816406 C 391.9375 253.625 401.988281 276.085938 418.234375 292.34375 C 434.480469 308.597656 456.929688 318.65625 481.722656 318.65625 C 487.757812 318.65625 493.734375 318.035156 499.585938 316.851562 C 504.914062 315.773438 510.066406 314.226562 514.988281 312.261719 Z M 497.15625 304.6875 C 502.136719 303.679688 506.960938 302.183594 511.566406 300.257812 L 511.859375 300.121094 C 512.539062 299.832031 513.238281 299.640625 513.964844 299.546875 C 514.3125 299.488281 514.667969 299.457031 515.03125 299.457031 C 516.132812 299.457031 517.203125 299.683594 518.230469 300.128906 L 518.21875 300.148438 L 518.230469 300.152344 L 538.640625 308.992188 L 534.363281 291.03125 C 534.039062 289.660156 534.070312 288.269531 534.449219 286.945312 C 534.816406 285.65625 535.511719 284.460938 536.515625 283.453125 C 543.621094 276.3125 549.347656 267.800781 553.246094 258.359375 C 556.992188 249.289062 559.058594 239.3125 559.058594 228.816406 C 559.058594 207.445312 550.398438 188.101562 536.40625 174.097656 C 522.414062 160.09375 503.078125 151.433594 481.722656 151.433594 C 460.367188 151.433594 441.03125 160.097656 427.039062 174.097656 C 413.042969 188.101562 404.386719 207.449219 404.386719 228.816406 C 404.386719 250.183594 413.042969 269.53125 427.039062 283.535156 C 441.03125 297.539062 460.367188 306.199219 481.722656 306.199219 C 487.085938 306.199219 492.246094 305.679688 497.15625 304.6875 Z M 281.890625 316.851562 C 276.558594 315.773438 271.410156 314.226562 266.488281 312.261719 L 239.816406 323.8125 C 238.378906 324.4375 236.882812 324.632812 235.441406 324.417969 L 235.441406 324.414062 C 233.972656 324.195312 232.585938 323.582031 231.417969 322.605469 L 231.429688 322.589844 L 231.417969 322.578125 C 230.503906 321.808594 229.789062 320.875 229.300781 319.839844 C 229.148438 319.542969 229.019531 319.234375 228.914062 318.90625 C 228.503906 317.667969 228.40625 316.339844 228.632812 315.023438 C 228.660156 314.855469 228.691406 314.6875 228.730469 314.519531 L 234.457031 290.453125 C 227.011719 282.558594 220.972656 273.296875 216.753906 263.082031 C 212.382812 252.492188 209.96875 240.914062 209.96875 228.816406 C 209.96875 204.007812 220.019531 181.546875 236.265625 165.289062 C 252.515625 149.03125 274.960938 138.976562 299.753906 138.976562 C 324.542969 138.976562 346.996094 149.035156 363.238281 165.289062 C 379.484375 181.546875 389.539062 204.011719 389.539062 228.816406 C 389.539062 253.625 379.488281 276.085938 363.238281 292.34375 C 346.996094 308.597656 324.546875 318.65625 299.753906 318.65625 C 293.71875 318.65625 287.742188 318.035156 281.890625 316.851562 Z M 281.890625 316.851562 " fill-opacity="1" fill-rule="evenodd"/></g></svg>