<svg xmlns="http://www.w3.org/2000/svg" xmlns:xlink="http://www.w3.org/1999/xlink" width="1080" zoomAndPan="magnify" viewBox="0 0 810 809.999993" height="1080" preserveAspectRatio="xMidYMid meet" version="1.0"><rect x="-81" width="972" fill="#ffffff" y="-80.999999" height="971.999992" fill-opacity="1"/><rect x="-81" width="972" fill="#000000" y="-80.999999" height="971.999992" fill-opacity="1"/><path fill="#f41414" d="M 129.121094 472.8125 C 163.796875 572.246094 255.386719 640.335938 360.433594 647.691406 C 486.925781 656.546875 599.726562 599.921875 646.277344 508.832031 C 707.378906 389.273438 631.242188 255.546875 625.03125 245.011719 C 619.648438 235.878906 546.851562 116.890625 405.722656 98.847656 C 379.753906 95.527344 313.210938 88.054688 246.164062 125.667969 C 183.824219 160.640625 138.550781 224.230469 123.148438 306.433594 C 118.496094 331.265625 102.890625 394.289062 127.914062 469.273438 C 128.308594 470.460938 128.710938 471.640625 129.121094 472.8125 Z M 129.121094 472.8125 " fill-opacity="1" fill-rule="nonzero"/><path fill="#ffffff" d="M 284.671875 433.054688 C 284.785156 452.421875 284.617188 471.128906 286.351562 489.945312 C 289.121094 520.980469 300.53125 538.402344 331.863281 529.589844 C 351.960938 523.933594 372.058594 512.507812 391.839844 501.132812 C 412.28125 489.125 431.378906 476.890625 451.035156 463.84375 C 465.414062 454.261719 480.136719 444.203125 493.738281 433.824219 C 508.957031 422.207031 532.152344 408.089844 538.480469 394.835938 C 546.179688 380.085938 540.65625 365.390625 531.207031 352.835938 C 519.039062 336.605469 496.453125 322.199219 480.585938 309.511719 C 455.851562 290.003906 429.15625 272.710938 402.304688 255.199219 C 378.910156 240.40625 356.847656 225.269531 333.730469 216.453125 C 329.53125 214.945312 325.46875 213.855469 321.246094 213.402344 C 303.972656 211.019531 294.519531 225.476562 291.113281 244.207031 C 287.414062 262.777344 286.574219 281.21875 285.703125 302.1875 C 284.304688 346.066406 284.8125 389.570312 284.671875 432.886719 Z M 284.671875 433.054688 " fill-opacity="1" fill-rule="nonzero"/></svg>