<svg xmlns="http://www.w3.org/2000/svg" xmlns:xlink="http://www.w3.org/1999/xlink" width="1080" zoomAndPan="magnify" viewBox="0 0 810 809.999993" height="1080" preserveAspectRatio="xMidYMid meet" version="1.0"><defs><clipPath id="6a0eb47e32"><path d="M 102.617188 102.617188 L 707.117188 102.617188 L 707.117188 707.117188 L 102.617188 707.117188 Z M 102.617188 102.617188 " clip-rule="nonzero"/></clipPath></defs><rect x="-81" width="972" fill="#ffffff" y="-80.999999" height="971.999992" fill-opacity="1"/><rect x="-81" width="972" fill="#000000" y="-80.999999" height="971.999992" fill-opacity="1"/><g clip-path="url(#6a0eb47e32)"><path fill="#000000" d="M 707.222656 404.917969 C 707.222656 409.867188 707.101562 414.8125 706.859375 419.753906 C 706.617188 424.695312 706.253906 429.625 705.765625 434.550781 C 705.28125 439.472656 704.675781 444.382812 703.949219 449.277344 C 703.226562 454.171875 702.378906 459.042969 701.414062 463.894531 C 700.449219 468.75 699.367188 473.574219 698.164062 478.375 C 696.960938 483.171875 695.640625 487.9375 694.207031 492.671875 C 692.769531 497.40625 691.21875 502.105469 689.550781 506.761719 C 687.886719 511.421875 686.105469 516.035156 684.210938 520.605469 C 682.316406 525.175781 680.3125 529.699219 678.199219 534.171875 C 676.082031 538.644531 673.859375 543.0625 671.527344 547.425781 C 669.195312 551.789062 666.757812 556.089844 664.214844 560.335938 C 661.671875 564.578125 659.023438 568.757812 656.277344 572.871094 C 653.527344 576.984375 650.679688 581.027344 647.730469 585 C 644.785156 588.976562 641.742188 592.875 638.601562 596.699219 C 635.464844 600.523438 632.234375 604.269531 628.910156 607.933594 C 625.589844 611.601562 622.179688 615.183594 618.679688 618.679688 C 615.183594 622.179688 611.601562 625.589844 607.933594 628.910156 C 604.269531 632.234375 600.523438 635.464844 596.699219 638.601562 C 592.875 641.742188 588.976562 644.785156 585 647.730469 C 581.027344 650.679688 576.984375 653.527344 572.871094 656.277344 C 568.757812 659.023438 564.578125 661.671875 560.335938 664.214844 C 556.089844 666.757812 551.789062 669.195312 547.425781 671.527344 C 543.0625 673.859375 538.644531 676.082031 534.171875 678.199219 C 529.699219 680.3125 525.175781 682.316406 520.605469 684.210938 C 516.035156 686.105469 511.421875 687.886719 506.761719 689.550781 C 502.105469 691.21875 497.40625 692.769531 492.671875 694.207031 C 487.9375 695.640625 483.171875 696.960938 478.375 698.164062 C 473.574219 699.367188 468.75 700.449219 463.894531 701.414062 C 459.042969 702.378906 454.171875 703.226562 449.277344 703.949219 C 444.382812 704.675781 439.472656 705.28125 434.550781 705.765625 C 429.625 706.253906 424.695312 706.617188 419.753906 706.859375 C 414.8125 707.101562 409.867188 707.222656 404.917969 707.222656 C 399.972656 707.222656 395.027344 707.101562 390.085938 706.859375 C 385.144531 706.617188 380.210938 706.253906 375.289062 705.765625 C 370.363281 705.28125 365.457031 704.675781 360.5625 703.949219 C 355.667969 703.226562 350.796875 702.378906 345.941406 701.414062 C 341.089844 700.449219 336.265625 699.367188 331.464844 698.164062 C 326.667969 696.960938 321.898438 695.640625 317.164062 694.207031 C 312.429688 692.769531 307.734375 691.21875 303.078125 689.550781 C 298.417969 687.886719 293.804688 686.105469 289.234375 684.210938 C 284.660156 682.316406 280.140625 680.3125 275.667969 678.199219 C 271.195312 676.082031 266.777344 673.859375 262.414062 671.527344 C 258.050781 669.195312 253.746094 666.757812 249.503906 664.214844 C 245.261719 661.671875 241.082031 659.023438 236.96875 656.277344 C 232.855469 653.527344 228.8125 650.679688 224.835938 647.730469 C 220.863281 644.785156 216.964844 641.742188 213.140625 638.601562 C 209.316406 635.464844 205.570312 632.234375 201.90625 628.910156 C 198.238281 625.589844 194.65625 622.179688 191.160156 618.679688 C 187.660156 615.183594 184.25 611.601562 180.925781 607.933594 C 177.605469 604.269531 174.375 600.523438 171.234375 596.699219 C 168.097656 592.875 165.054688 588.976562 162.105469 585 C 159.160156 581.027344 156.3125 576.984375 153.5625 572.871094 C 150.8125 568.757812 148.167969 564.578125 145.625 560.335938 C 143.082031 556.089844 140.644531 551.789062 138.3125 547.425781 C 135.980469 543.0625 133.753906 538.644531 131.640625 534.171875 C 129.523438 529.699219 127.519531 525.175781 125.628906 520.605469 C 123.734375 516.035156 121.953125 511.421875 120.289062 506.761719 C 118.621094 502.105469 117.070312 497.40625 115.632812 492.671875 C 114.195312 487.9375 112.878906 483.171875 111.675781 478.375 C 110.472656 473.574219 109.390625 468.75 108.425781 463.894531 C 107.460938 459.042969 106.613281 454.171875 105.886719 449.277344 C 105.160156 444.382812 104.554688 439.472656 104.070312 434.550781 C 103.585938 429.625 103.222656 424.695312 102.980469 419.753906 C 102.738281 414.8125 102.617188 409.867188 102.617188 404.917969 C 102.617188 399.972656 102.738281 395.027344 102.980469 390.085938 C 103.222656 385.144531 103.585938 380.210938 104.070312 375.289062 C 104.554688 370.363281 105.160156 365.457031 105.886719 360.5625 C 106.613281 355.667969 107.460938 350.796875 108.425781 345.941406 C 109.390625 341.089844 110.472656 336.265625 111.675781 331.464844 C 112.878906 326.667969 114.195312 321.898438 115.632812 317.164062 C 117.070312 312.429688 118.621094 307.734375 120.289062 303.078125 C 121.953125 298.417969 123.734375 293.804688 125.628906 289.234375 C 127.519531 284.660156 129.523438 280.140625 131.640625 275.667969 C 133.753906 271.195312 135.980469 266.777344 138.3125 262.414062 C 140.644531 258.050781 143.082031 253.746094 145.625 249.503906 C 148.167969 245.261719 150.8125 241.082031 153.5625 236.96875 C 156.3125 232.855469 159.160156 228.8125 162.105469 224.835938 C 165.054688 220.863281 168.097656 216.964844 171.234375 213.140625 C 174.375 209.316406 177.605469 205.570312 180.925781 201.90625 C 184.25 198.238281 187.660156 194.65625 191.160156 191.160156 C 194.65625 187.660156 198.238281 184.25 201.90625 180.925781 C 205.570312 177.605469 209.316406 174.375 213.140625 171.234375 C 216.964844 168.097656 220.863281 165.054688 224.835938 162.105469 C 228.8125 159.160156 232.855469 156.3125 236.96875 153.5625 C 241.082031 150.8125 245.261719 148.167969 249.503906 145.625 C 253.746094 143.082031 258.050781 140.644531 262.414062 138.3125 C 266.777344 135.980469 271.195312 133.753906 275.667969 131.640625 C 280.140625 129.523438 284.660156 127.519531 289.234375 125.628906 C 293.804688 123.734375 298.417969 121.953125 303.078125 120.289062 C 307.734375 118.621094 312.429688 117.070312 317.164062 115.632812 C 321.898438 114.195312 326.667969 112.878906 331.464844 111.675781 C 336.265625 110.472656 341.089844 109.390625 345.941406 108.425781 C 350.796875 107.460938 355.667969 106.613281 360.5625 105.886719 C 365.457031 105.160156 370.363281 104.554688 375.289062 104.070312 C 380.210938 103.585938 385.144531 103.222656 390.085938 102.980469 C 395.027344 102.738281 399.972656 102.617188 404.917969 102.617188 C 409.867188 102.617188 414.8125 102.738281 419.753906 102.980469 C 424.695312 103.222656 429.625 103.585938 434.550781 104.070312 C 439.472656 104.554688 444.382812 105.160156 449.277344 105.886719 C 454.171875 106.613281 459.042969 107.460938 463.894531 108.425781 C 468.75 109.390625 473.574219 110.472656 478.375 111.675781 C 483.171875 112.878906 487.9375 114.195312 492.671875 115.632812 C 497.40625 117.070312 502.105469 118.621094 506.761719 120.289062 C 511.421875 121.953125 516.035156 123.734375 520.605469 125.628906 C 525.175781 127.519531 529.699219 129.523438 534.171875 131.640625 C 538.644531 133.753906 543.0625 135.980469 547.425781 138.3125 C 551.789062 140.644531 556.089844 143.082031 560.335938 145.625 C 564.578125 148.167969 568.757812 150.8125 572.871094 153.5625 C 576.984375 156.3125 581.027344 159.160156 585 162.105469 C 588.976562 165.054688 592.875 168.097656 596.699219 171.234375 C 600.523438 174.375 604.269531 177.605469 607.933594 180.925781 C 611.601562 184.25 615.183594 187.660156 618.679688 191.160156 C 622.179688 194.65625 625.589844 198.238281 628.910156 201.90625 C 632.234375 205.570312 635.464844 209.316406 638.601562 213.140625 C 641.742188 216.964844 644.785156 220.863281 647.730469 224.835938 C 650.679688 228.8125 653.527344 232.855469 656.277344 236.96875 C 659.023438 241.082031 661.671875 245.261719 664.214844 249.503906 C 666.757812 253.746094 669.195312 258.050781 671.527344 262.414062 C 673.859375 266.777344 676.082031 271.195312 678.199219 275.667969 C 680.3125 280.140625 682.316406 284.660156 684.210938 289.234375 C 686.105469 293.804688 687.886719 298.417969 689.550781 303.078125 C 691.21875 307.734375 692.769531 312.429688 694.207031 317.164062 C 695.640625 321.898438 696.960938 326.667969 698.164062 331.464844 C 699.367188 336.265625 700.449219 341.089844 701.414062 345.941406 C 702.378906 350.796875 703.226562 355.667969 703.949219 360.5625 C 704.675781 365.457031 705.28125 370.363281 705.765625 375.289062 C 706.253906 380.210938 706.617188 385.144531 706.859375 390.085938 C 707.101562 395.027344 707.222656 399.972656 707.222656 404.917969 Z M 707.222656 404.917969 " fill-opacity="1" fill-rule="nonzero"/></g><path fill="#25f4ee" d="M 364.789062 361.703125 L 364.789062 345.300781 C 359.285156 344.550781 353.703125 344.09375 348.011719 344.09375 C 279.375 344.09375 223.542969 399.925781 223.542969 468.5625 C 223.542969 510.679688 244.585938 547.9375 276.691406 570.484375 C 255.96875 548.234375 243.675781 518.4375 243.675781 485.714844 C 243.675781 418.074219 297.519531 363.257812 364.789062 361.703125 Z M 364.789062 361.703125 " fill-opacity="1" fill-rule="nonzero"/><path fill="#25f4ee" d="M 367.714844 542.917969 C 398.34375 542.917969 423.683594 518.195312 424.808594 487.863281 L 425.078125 217.207031 L 474.148438 217.207031 C 474.148438 217.207031 474.066406 216.832031 474.066406 216.832031 C 473.046875 211.277344 472.484375 205.53125 472.484375 199.679688 L 404.867188 199.679688 L 404.757812 470.710938 C 403.632812 501.070312 378.640625 525.417969 348.011719 525.417969 C 338.484375 525.417969 329.542969 523.027344 321.652344 518.894531 C 331.988281 533.203125 348.765625 542.945312 367.742188 542.945312 Z M 367.714844 542.917969 " fill-opacity="1" fill-rule="nonzero"/><path fill="#25f4ee" d="M 566.59375 309.601562 L 566.59375 293.710938 C 547.695312 293.710938 530.113281 288.097656 515.351562 278.464844 C 528.476562 293.546875 546.328125 305.253906 566.59375 309.574219 Z M 566.59375 309.601562 " fill-opacity="1" fill-rule="nonzero"/><path fill="#fe2c55" d="M 515.351562 278.488281 C 500.964844 261.953125 492.210938 240.398438 492.210938 216.804688 L 473.796875 216.804688 C 478.574219 242.574219 494.171875 264.691406 515.351562 278.488281 Z M 515.351562 278.488281 " fill-opacity="1" fill-rule="nonzero"/><path fill="#fe2c55" d="M 348.011719 411.171875 C 316.660156 411.171875 290.785156 437.183594 290.785156 468.535156 C 290.785156 490.359375 303.535156 509.339844 321.625 518.867188 C 314.886719 509.527344 310.863281 498.089844 310.863281 485.714844 C 310.863281 454.363281 336.363281 428.863281 367.714844 428.863281 C 373.566406 428.863281 379.175781 429.828125 384.492188 431.492188 L 384.492188 362.453125 C 378.988281 361.703125 373.40625 361.246094 367.714844 361.246094 C 366.722656 361.246094 365.753906 361.300781 364.789062 361.328125 L 364.519531 361.328125 C 364.519531 361.328125 364.332031 413.589844 364.332031 413.589844 C 359.019531 411.925781 353.863281 411.199219 348.011719 411.199219 Z M 348.011719 411.171875 " fill-opacity="1" fill-rule="nonzero"/><path fill="#fe2c55" d="M 566.59375 308.796875 L 566.273438 308.742188 L 566.273438 360.949219 C 531.1875 360.949219 498.601562 349.410156 472.082031 330.378906 L 472.082031 468.535156 C 472.082031 537.175781 416.648438 592.65625 348.011719 592.65625 C 321.492188 592.65625 296.902344 584.632812 276.664062 570.433594 C 299.398438 594.832031 331.800781 610.160156 367.714844 610.160156 C 436.351562 610.160156 492.183594 554.328125 492.183594 485.691406 L 492.183594 348.253906 C 518.707031 367.285156 551.210938 378.507812 586.269531 378.507812 L 586.269531 310.890625 C 579.503906 310.890625 572.929688 310.164062 566.566406 308.796875 Z M 566.59375 308.796875 " fill-opacity="1" fill-rule="nonzero"/><path fill="#ffffff" d="M 472.484375 468.535156 L 472.484375 331.101562 C 499.003906 350.132812 531.511719 361.355469 566.566406 361.355469 L 566.566406 308.796875 C 546.300781 304.445312 528.476562 293.574219 515.324219 278.488281 C 494.144531 264.664062 478.84375 242.574219 474.066406 216.804688 L 424.542969 216.804688 L 424.433594 487.835938 C 423.308594 518.195312 398.316406 542.542969 367.6875 542.542969 C 348.710938 542.542969 331.933594 533.175781 321.597656 518.839844 C 303.507812 509.3125 291.132812 490.359375 291.132812 468.511719 C 291.132812 437.15625 316.632812 411.65625 347.984375 411.65625 C 353.835938 411.65625 359.449219 412.625 364.761719 414.289062 L 364.761719 361.273438 C 297.46875 362.855469 243.21875 418.019531 243.21875 485.691406 C 243.21875 518.410156 255.941406 548.207031 276.636719 570.460938 C 296.851562 584.660156 321.4375 593.007812 347.984375 593.007812 C 416.621094 593.007812 472.457031 537.175781 472.457031 468.535156 Z M 472.484375 468.535156 " fill-opacity="1" fill-rule="nonzero"/></svg>