<svg xmlns="http://www.w3.org/2000/svg" xmlns:xlink="http://www.w3.org/1999/xlink" width="1080" zoomAndPan="magnify" viewBox="0 0 810 809.999993" height="1080" preserveAspectRatio="xMidYMid meet" version="1.0"><defs><clipPath id="831c69974c"><path d="M 118.265625 119.457031 L 635 119.457031 L 635 636 L 118.265625 636 Z M 118.265625 119.457031 " clip-rule="nonzero"/></clipPath><clipPath id="05abaabf07"><path d="M 658 569 L 728.765625 569 L 728.765625 639.957031 L 658 639.957031 Z M 658 569 " clip-rule="nonzero"/></clipPath></defs><rect x="-81" width="972" fill="#ffffff" y="-80.999999" height="971.999992" fill-opacity="1"/><rect x="-81" width="972" fill="#000000" y="-80.999999" height="971.999992" fill-opacity="1"/><path fill="#0a66c2" d="M 698.617188 606.519531 C 703.898438 606.566406 708.230469 602.332031 708.277344 597.054688 C 708.277344 596.835938 708.277344 596.617188 708.277344 596.398438 C 708.277344 589.222656 703.945312 585.816406 695.089844 585.816406 L 680.757812 585.816406 L 680.757812 623.328125 L 686.160156 623.328125 L 686.160156 606.980469 L 692.777344 606.980469 L 692.925781 607.175781 L 703.21875 623.328125 L 708.984375 623.328125 L 697.914062 606.617188 L 698.644531 606.519531 Z M 692.390625 602.746094 L 686.136719 602.746094 L 686.136719 590.074219 L 694.066406 590.074219 C 698.15625 590.074219 702.828125 590.753906 702.828125 596.105469 C 702.828125 602.261719 698.109375 602.773438 692.363281 602.773438 " fill-opacity="1" fill-rule="nonzero"/><g clip-path="url(#831c69974c)"><path fill="#0a66c2" d="M 557.953125 559.492188 L 481.5 559.492188 L 481.5 439.773438 C 481.5 411.234375 480.988281 374.476562 441.742188 374.476562 C 402.492188 374.476562 395.824219 405.59375 395.824219 437.707031 L 395.824219 559.492188 L 319.375 559.492188 L 319.375 313.292969 L 392.785156 313.292969 L 392.785156 346.9375 L 393.804688 346.9375 C 408.769531 321.34375 436.605469 306.066406 466.21875 307.160156 C 543.71875 307.160156 558 358.128906 558 424.421875 L 558 559.492188 Z M 233.066406 279.644531 C 208.5625 279.644531 188.683594 259.792969 188.683594 235.296875 C 188.683594 210.796875 208.539062 190.921875 233.042969 190.921875 C 257.546875 190.921875 277.425781 210.773438 277.425781 235.269531 C 277.425781 259.769531 257.570312 279.644531 233.066406 279.644531 M 271.316406 559.492188 L 194.765625 559.492188 L 194.765625 313.292969 L 271.316406 313.292969 Z M 596.082031 119.90625 L 156.347656 119.90625 C 135.566406 119.6875 118.507812 136.328125 118.265625 157.105469 L 118.265625 598.585938 C 118.507812 619.386719 135.542969 636.027344 156.347656 635.808594 L 596.082031 635.808594 C 616.910156 636.078125 634.015625 619.410156 634.308594 598.585938 L 634.308594 157.082031 C 634.015625 136.253906 616.910156 119.613281 596.082031 119.882812 " fill-opacity="1" fill-rule="nonzero"/></g><g clip-path="url(#05abaabf07)"><path fill="#0a66c2" d="M 693.023438 569.101562 C 673.582031 569.296875 657.984375 585.183594 658.179688 604.621094 C 658.371094 624.058594 674.261719 639.652344 693.703125 639.457031 C 713.144531 639.265625 728.742188 623.378906 728.546875 603.9375 C 728.351562 584.769531 712.878906 569.273438 693.703125 569.101562 L 693.023438 569.101562 M 693.023438 635.445312 C 675.988281 635.734375 661.949219 622.136719 661.65625 605.105469 C 661.367188 588.078125 674.96875 574.039062 692 573.75 C 709.03125 573.457031 723.074219 587.054688 723.363281 604.085938 L 723.363281 604.597656 C 723.730469 621.261719 710.492188 635.054688 693.824219 635.421875 L 693.023438 635.421875 " fill-opacity="1" fill-rule="nonzero"/></g></svg>